<?xml version="1.0" encoding="UTF-8" standalone="no"?>
<svg
   xmlns:ns1="http://www.iki.fi/pav/software/textext/"
   xmlns:dc="http://purl.org/dc/elements/1.1/"
   xmlns:cc="http://creativecommons.org/ns#"
   xmlns:rdf="http://www.w3.org/1999/02/22-rdf-syntax-ns#"
   xmlns:svg="http://www.w3.org/2000/svg"
   xmlns="http://www.w3.org/2000/svg"
   xmlns:sodipodi="http://sodipodi.sourceforge.net/DTD/sodipodi-0.dtd"
   xmlns:inkscape="http://www.inkscape.org/namespaces/inkscape"
   width="288.19992"
   height="312.5094"
   version="1.1"
   viewBox="0 0 288.19992 312.5094"
   xml:space="preserve"
   id="svg234"
   sodipodi:docname="kinematic_tree_FK.svg"
   inkscape:version="1.0.2 (1.0.2+r75+1)"><sodipodi:namedview
     pagecolor="#ffffff"
     bordercolor="#666666"
     borderopacity="1"
     objecttolerance="10"
     gridtolerance="10"
     guidetolerance="10"
     inkscape:pageopacity="0"
     inkscape:pageshadow="2"
     inkscape:window-width="1920"
     inkscape:window-height="1025"
     id="namedview236"
     showgrid="false"
     inkscape:zoom="2.372881"
     inkscape:cx="37.332486"
     inkscape:cy="190.63408"
     inkscape:window-x="0"
     inkscape:window-y="27"
     inkscape:window-maximized="1"
     inkscape:current-layer="g189"
     inkscape:document-rotation="0" /><metadata
     id="metadata2"><rdf:RDF><cc:Work
         rdf:about=""><dc:format>image/svg+xml</dc:format><dc:type
           rdf:resource="http://purl.org/dc/dcmitype/StillImage" /><dc:title></dc:title></cc:Work></rdf:RDF></metadata><defs
     id="defs46"><marker
       style="overflow:visible;"
       id="marker3170"
       refX="0.0"
       refY="0.0"
       orient="auto"
       inkscape:stockid="Arrow2Mend"
       inkscape:isstock="true"><path
         transform="scale(0.6) rotate(180) translate(0,0)"
         d="M 8.7185878,4.0337352 L -2.2072895,0.016013256 L 8.7185884,-4.0017078 C 6.9730900,-1.6296469 6.9831476,1.6157441 8.7185878,4.0337352 z "
         style="fill-rule:evenodd;stroke-width:0.625;stroke-linejoin:round;stroke:#75c700;stroke-opacity:1;fill:#75c700;fill-opacity:1"
         id="path3168" /></marker><marker
       style="overflow:visible;"
       id="marker3034"
       refX="0.0"
       refY="0.0"
       orient="auto"
       inkscape:stockid="Arrow2Mend"
       inkscape:isstock="true"><path
         transform="scale(0.6) rotate(180) translate(0,0)"
         d="M 8.7185878,4.0337352 L -2.2072895,0.016013256 L 8.7185884,-4.0017078 C 6.9730900,-1.6296469 6.9831476,1.6157441 8.7185878,4.0337352 z "
         style="fill-rule:evenodd;stroke-width:0.625;stroke-linejoin:round;stroke:#75c700;stroke-opacity:1;fill:#75c700;fill-opacity:1"
         id="path3032" /></marker><marker
       style="overflow:visible;"
       id="marker2904"
       refX="0.0"
       refY="0.0"
       orient="auto"
       inkscape:stockid="Arrow2Mend"
       inkscape:isstock="true"
       inkscape:collect="always"><path
         transform="scale(0.6) rotate(180) translate(0,0)"
         d="M 8.7185878,4.0337352 L -2.2072895,0.016013256 L 8.7185884,-4.0017078 C 6.9730900,-1.6296469 6.9831476,1.6157441 8.7185878,4.0337352 z "
         style="fill-rule:evenodd;stroke-width:0.625;stroke-linejoin:round;stroke:#75c700;stroke-opacity:1;fill:#ff6700;fill-opacity:1"
         id="path2902" /></marker><marker
       style="overflow:visible;"
       id="marker2780"
       refX="0.0"
       refY="0.0"
       orient="auto"
       inkscape:stockid="Arrow2Mend"
       inkscape:isstock="true"
       inkscape:collect="always"><path
         transform="scale(0.6) rotate(180) translate(0,0)"
         d="M 8.7185878,4.0337352 L -2.2072895,0.016013256 L 8.7185884,-4.0017078 C 6.9730900,-1.6296469 6.9831476,1.6157441 8.7185878,4.0337352 z "
         style="fill-rule:evenodd;stroke-width:0.625;stroke-linejoin:round;stroke:#75c700;stroke-opacity:1;fill:#75c700;fill-opacity:1"
         id="path2778" /></marker><marker
       style="overflow:visible;"
       id="marker2644"
       refX="0.0"
       refY="0.0"
       orient="auto"
       inkscape:stockid="Arrow2Mend"
       inkscape:isstock="true"
       inkscape:collect="always"><path
         transform="scale(0.6) rotate(180) translate(0,0)"
         d="M 8.7185878,4.0337352 L -2.2072895,0.016013256 L 8.7185884,-4.0017078 C 6.9730900,-1.6296469 6.9831476,1.6157441 8.7185878,4.0337352 z "
         style="fill-rule:evenodd;stroke-width:0.625;stroke-linejoin:round;stroke:#75c700;stroke-opacity:1;fill:#75c700;fill-opacity:1"
         id="path2642" /></marker><marker
       style="overflow:visible;"
       id="Arrow2Mend"
       refX="0.0"
       refY="0.0"
       orient="auto"
       inkscape:stockid="Arrow2Mend"
       inkscape:isstock="true"
       inkscape:collect="always"><path
         transform="scale(0.6) rotate(180) translate(0,0)"
         d="M 8.7185878,4.0337352 L -2.2072895,0.016013256 L 8.7185884,-4.0017078 C 6.9730900,-1.6296469 6.9831476,1.6157441 8.7185878,4.0337352 z "
         style="fill-rule:evenodd;stroke-width:0.625;stroke-linejoin:round;stroke:#75c700;stroke-opacity:1;fill:#75c700;fill-opacity:1"
         id="path2293" /></marker><marker
       id="marker1551"
       overflow="visible"
       orient="auto"><path
         transform="scale(-0.6)"
         d="M 8.7186,4.0337 -2.2074,0.016 8.7186,-4.0017 c -1.7455,2.3721 -1.7354,5.6175 0,8.0354 z"
         fill="#ff0000"
         fill-rule="evenodd"
         stroke="#ff0000"
         stroke-linejoin="round"
         stroke-width="0.625"
         id="path4" /></marker><marker
       id="marker1541"
       overflow="visible"
       orient="auto"><path
         transform="scale(-0.6)"
         d="M 8.7186,4.0337 -2.2074,0.016 8.7186,-4.0017 c -1.7455,2.3721 -1.7354,5.6175 0,8.0354 z"
         fill="#ff0000"
         fill-rule="evenodd"
         stroke="#ff0000"
         stroke-linejoin="round"
         stroke-width="0.625"
         id="path7" /></marker><marker
       id="marker1541-8"
       overflow="visible"
       orient="auto"><path
         transform="scale(-0.6)"
         d="M 8.7186,4.0337 -2.2074,0.016 8.7186,-4.0017 c -1.7455,2.3721 -1.7354,5.6175 0,8.0354 z"
         fill="#ff0000"
         fill-rule="evenodd"
         stroke="#ff0000"
         stroke-linejoin="round"
         stroke-width="0.625"
         id="path10" /></marker><marker
       id="marker1551-9"
       overflow="visible"
       orient="auto"><path
         transform="scale(-0.6)"
         d="M 8.7186,4.0337 -2.2074,0.016 8.7186,-4.0017 c -1.7455,2.3721 -1.7354,5.6175 0,8.0354 z"
         fill="#ff0000"
         fill-rule="evenodd"
         stroke="#ff0000"
         stroke-linejoin="round"
         stroke-width="0.625"
         id="path13" /></marker><marker
       id="marker1541-8-0"
       overflow="visible"
       orient="auto"><path
         transform="scale(-0.6)"
         d="M 8.7186,4.0337 -2.2074,0.016 8.7186,-4.0017 c -1.7455,2.3721 -1.7354,5.6175 0,8.0354 z"
         fill="#ff0000"
         fill-rule="evenodd"
         stroke="#ff0000"
         stroke-linejoin="round"
         stroke-width="0.625"
         id="path16" /></marker><marker
       id="marker1551-9-8"
       overflow="visible"
       orient="auto"><path
         transform="scale(-0.6)"
         d="M 8.7186,4.0337 -2.2074,0.016 8.7186,-4.0017 c -1.7455,2.3721 -1.7354,5.6175 0,8.0354 z"
         fill="#ff0000"
         fill-rule="evenodd"
         stroke="#ff0000"
         stroke-linejoin="round"
         stroke-width="0.625"
         id="path19" /></marker><marker
       id="marker1541-8-0-28"
       overflow="visible"
       orient="auto"><path
         transform="scale(-0.6)"
         d="M 8.7186,4.0337 -2.2074,0.016 8.7186,-4.0017 c -1.7455,2.3721 -1.7354,5.6175 0,8.0354 z"
         fill="#ff6700"
         fill-rule="evenodd"
         stroke="#ff6700"
         stroke-linejoin="round"
         stroke-width="0.625"
         id="path22" /></marker><marker
       id="marker1551-9-8-6"
       overflow="visible"
       orient="auto"><path
         transform="scale(-0.6)"
         d="M 8.7186,4.0337 -2.2074,0.016 8.7186,-4.0017 c -1.7455,2.3721 -1.7354,5.6175 0,8.0354 z"
         fill="#ff6700"
         fill-rule="evenodd"
         stroke="#ff6700"
         stroke-linejoin="round"
         stroke-width="0.625"
         id="path25" /></marker><marker
       id="marker1541-8-0-9"
       overflow="visible"
       orient="auto"><path
         transform="scale(-0.6)"
         d="M 8.7186,4.0337 -2.2074,0.016 8.7186,-4.0017 c -1.7455,2.3721 -1.7354,5.6175 0,8.0354 z"
         fill="#ff0000"
         fill-rule="evenodd"
         stroke="#ff0000"
         stroke-linejoin="round"
         stroke-width="0.625"
         id="path28" /></marker><marker
       id="marker1551-9-8-5"
       overflow="visible"
       orient="auto"><path
         transform="scale(-0.6)"
         d="M 8.7186,4.0337 -2.2074,0.016 8.7186,-4.0017 c -1.7455,2.3721 -1.7354,5.6175 0,8.0354 z"
         fill="#ff0000"
         fill-rule="evenodd"
         stroke="#ff0000"
         stroke-linejoin="round"
         stroke-width="0.625"
         id="path31" /></marker><marker
       id="marker1541-8-0-28-8"
       overflow="visible"
       orient="auto"><path
         transform="scale(-0.6)"
         d="M 8.7186,4.0337 -2.2074,0.016 8.7186,-4.0017 c -1.7455,2.3721 -1.7354,5.6175 0,8.0354 z"
         fill="#ff6700"
         fill-rule="evenodd"
         stroke="#ff6700"
         stroke-linejoin="round"
         stroke-width="0.625"
         id="path34" /></marker><marker
       id="marker1551-9-8-6-1"
       overflow="visible"
       orient="auto"><path
         transform="scale(-0.6)"
         d="M 8.7186,4.0337 -2.2074,0.016 8.7186,-4.0017 c -1.7455,2.3721 -1.7354,5.6175 0,8.0354 z"
         fill="#ff6700"
         fill-rule="evenodd"
         stroke="#ff6700"
         stroke-linejoin="round"
         stroke-width="0.625"
         id="path37" /></marker><marker
       id="marker1541-8-0-9-8"
       overflow="visible"
       orient="auto"><path
         transform="scale(-0.6)"
         d="M 8.7186,4.0337 -2.2074,0.016 8.7186,-4.0017 c -1.7455,2.3721 -1.7354,5.6175 0,8.0354 z"
         fill="#ff0000"
         fill-rule="evenodd"
         stroke="#ff0000"
         stroke-linejoin="round"
         stroke-width="0.625"
         id="path40" /></marker><marker
       id="marker1551-9-8-5-3"
       overflow="visible"
       orient="auto"><path
         transform="scale(-0.6)"
         d="M 8.7186,4.0337 -2.2074,0.016 8.7186,-4.0017 c -1.7455,2.3721 -1.7354,5.6175 0,8.0354 z"
         fill="#ff0000"
         fill-rule="evenodd"
         stroke="#ff0000"
         stroke-linejoin="round"
         stroke-width="0.625"
         id="path43" /></marker></defs><g
     transform="matrix(1.3333,0,0,1.3333,-13.745023,-18.253666)"
     id="g232"><path
       d="M 75.578,167.09 92.75,221.773"
       fill="#cfe2f3"
       fill-rule="evenodd"
       id="path48" /><path
       d="M 75.578,167.09 92.75,221.773"
       fill="#cfe2f3"
       fill-rule="evenodd"
       stroke="#666666"
       stroke-linejoin="round"
       stroke-width="1.5"
       id="path50" /><path
       d="m 70.594,162.28 c 0,-2.652 2.23,-4.805 4.984,-4.805 1.32,0 2.59,0.504 3.524,1.407 0.933,0.902 1.46,2.125 1.46,3.398 0,2.656 -2.234,4.809 -4.984,4.809 -2.754,0 -4.984,-2.153 -4.984,-4.809 z"
       fill="#cfe2f3"
       fill-rule="evenodd"
       stroke="#666666"
       stroke-linejoin="round"
       stroke-width="0.75"
       id="path52" /><path
       d="M 95.75,103.29 75.578,157.481"
       fill="#cfe2f3"
       fill-rule="evenodd"
       id="path54" /><path
       d="M 95.742,100.82 75.586,157.473"
       fill="#cfe2f3"
       fill-rule="evenodd"
       stroke="#666666"
       stroke-linejoin="round"
       stroke-width="1.533"
       id="path56" /><path
       d="m 145.73,167.09 -19.984,55.062"
       fill="#cfe2f3"
       fill-rule="evenodd"
       id="path58" /><path
       d="m 145.73,167.09 -19.984,55.062"
       fill="#cfe2f3"
       fill-rule="evenodd"
       stroke="#666666"
       stroke-linejoin="round"
       stroke-width="1.5"
       id="path60" /><path
       d="m 127.64,102.89 18.093,54.593"
       fill="#cfe2f3"
       fill-rule="evenodd"
       id="path62" /><path
       d="m 127.75,100.85 17.989,61.495"
       fill="#cfe2f3"
       fill-rule="evenodd"
       stroke="#666666"
       stroke-linejoin="round"
       stroke-width="1.5228"
       id="path64" /><path
       d="m 75.352,62.184 c 0,-4.45 3.605,-8.055 8.054,-8.055 h 55.606 c 2.136,0 4.187,0.848 5.699,2.359 1.508,1.508 2.359,3.559 2.359,5.696 v 32.218 c 0,4.45 -3.609,8.055 -8.058,8.055 H 83.406 c -4.449,0 -8.054,-3.605 -8.054,-8.055 z"
       fill="#cfe2f3"
       fill-rule="evenodd"
       stroke="#666666"
       stroke-linejoin="round"
       stroke-width="0.75"
       id="path66" /><g
       fill="#cfe2f3"
       fill-rule="evenodd"
       id="g76"><path
         d="m 111.04,53.938 19.84,0.187"
         id="path68" /><path
         d="m 111.3,54.125 0.191,-19.84"
         id="path70" /><path
         d="M 111.21,54.129 153.683,38.586"
         id="path72" /><path
         d="m 14.824,222.12 208.04,0.399"
         id="path74" /></g><path
       d="m 14.824,222.12 208.04,0.399"
       fill="#cfe2f3"
       fill-rule="evenodd"
       stroke="#000000"
       stroke-linejoin="round"
       stroke-width="6"
       id="path78" /><path
       d="m 74.445,162.28 c 0,-0.625 0.508,-1.133 1.133,-1.133 0.301,0 0.59,0.118 0.801,0.332 0.215,0.211 0.332,0.5 0.332,0.801 0,0.625 -0.508,1.133 -1.133,1.133 -0.625,0 -1.133,-0.508 -1.133,-1.133 z"
       fill="#5b6369"
       fill-rule="evenodd"
       id="path88" /><g
       transform="translate(-16.961,-59.398)"
       id="g92"><path
         d="m 140.75,162.28 c 0,-2.652 2.23,-4.805 4.984,-4.805 1.321,0 2.59,0.504 3.524,1.407 0.937,0.902 1.461,2.125 1.461,3.398 0,2.656 -2.231,4.809 -4.985,4.809 -2.754,0 -4.984,-2.153 -4.984,-4.809 z"
         fill="#cfe2f3"
         fill-rule="evenodd"
         stroke="#666666"
         stroke-linejoin="round"
         stroke-width="0.75"
         id="path90" /></g><path
       d="m 127.64,102.89 c 0,-0.625 0.507,-1.133 1.132,-1.133 0.301,0 0.59,0.118 0.801,0.332 0.215,0.211 0.332,0.5 0.332,0.801 0,0.625 -0.504,1.133 -1.133,1.133 -0.625,0 -1.132,-0.508 -1.132,-1.133 z"
       fill="#5b6369"
       fill-rule="evenodd"
       id="path94" /><g
       transform="translate(-50.565,-59.843)"
       id="g98"><path
         d="m 140.75,162.28 c 0,-2.652 2.23,-4.805 4.984,-4.805 1.321,0 2.59,0.504 3.524,1.407 0.937,0.902 1.461,2.125 1.461,3.398 0,2.656 -2.231,4.809 -4.985,4.809 -2.754,0 -4.984,-2.153 -4.984,-4.809 z"
         fill="#cfe2f3"
         fill-rule="evenodd"
         stroke="#666666"
         stroke-linejoin="round"
         stroke-width="0.75"
         id="path96" /></g><path
       d="m 94.037,102.44 c 0,-0.625 0.507,-1.133 1.132,-1.133 0.301,0 0.59,0.118 0.801,0.332 0.215,0.211 0.332,0.5 0.332,0.801 0,0.625 -0.504,1.133 -1.133,1.133 -0.625,0 -1.132,-0.508 -1.132,-1.133 z"
       fill="#5b6369"
       fill-rule="evenodd"
       id="path100" /><g
       fill="none"
       stroke="#ff0000"
       stroke-width="0.75px"
       id="g106"><path
         d="M 27.187,219.13 V 199.031"
         marker-end="url(#marker1541)"
         id="path102" /><path
         d="M 27.187,219.13 H 47.286"
         marker-end="url(#marker1551)"
         id="path104" /></g><g
       transform="translate(83.852,-165.19)"
       fill="none"
       stroke="#ff0000"
       stroke-width="0.75px"
       id="g112"
       style="fill:#74c700;fill-opacity:0.43137255;stroke:#75c700;stroke-opacity:1"><path
         d="M 27.187,219.13 V 199.031"
         marker-end="url(#marker1541-8)"
         id="path108"
         style="fill:#75c700;fill-opacity:1;stroke:#75c700;stroke-opacity:1;stroke-width:0.75001875;stroke-miterlimit:4;stroke-dasharray:none;marker-end:url(#Arrow2Mend)" /><path
         d="M 27.187,219.13 H 47.286"
         marker-end="url(#marker1551-9)"
         id="path110"
         style="fill:#75c700;fill-opacity:1;stroke:#75c700;stroke-opacity:1;marker-end:url(#marker2644)" /></g><g
       transform="translate(101.44,-116.18)"
       fill="none"
       stroke="#ff0000"
       stroke-width="0.75px"
       id="g118"><path
         d="M 27.187,219.13 V 199.031"
         marker-end="url(#marker1541-8-0)"
         id="path114" /><path
         d="M 27.187,219.13 H 47.286"
         marker-end="url(#marker1551-9-8)"
         id="path116" /></g><g
       fill="#ff0000"
       id="g156"
       transform="translate(1.5000375)"><g
         transform="translate(104.56,26.092)"
         stroke="#ff0000"
         ns1:alignment="middle center"
         ns1:inkscapeversion="1.0.2"
         ns1:jacobian_sqrt="1.0"
         ns1:pdfconverter="inkscape"
         ns1:preamble="/home/mfourmy/.config/inkscape/extensions/textext/default_packages.tex"
         ns1:scale="1.0"
         ns1:stroke-to-path="0"
         ns1:texconverter="pdflatex"
         ns1:text="$1$"
         ns1:version="1.6.1"
         id="g130"
         style="fill:#75c700;fill-opacity:1"><defs
           id="defs120" /><g
           transform="translate(-149.6,-128.12)"
           fill="#ff0000"
           stroke="#ff0000"
           id="g128"
           style="fill:#75c700;fill-opacity:1"><g
             fill="#ff0000"
             stroke="#ff0000"
             id="g126"
             style="fill:#75c700;fill-opacity:1"><g
               transform="translate(148.71,134.76)"
               fill="#ff0000"
               stroke="#ff0000"
               id="g124"
               style="fill:#75c700;fill-opacity:1"><path
                 d="m 2.9375,-6.375 c 0,-0.25 0,-0.26562 -0.23438,-0.26562 C 2.07812,-6 1.20312,-6 0.89062,-6 v 0.3125 c 0.20312,0 0.78125,0 1.2969,-0.26562 v 5.1719 c 0,0.35938 -0.03125,0.46875 -0.92188,0.46875 H 0.95314 V 3e-5 c 0.34375,-0.03125 1.2031,-0.03125 1.6094,-0.03125 0.39062,0 1.2656,0 1.6094,0.03125 v -0.3125 h -0.3125 c -0.90625,0 -0.92188,-0.10938 -0.92188,-0.46875 z"
                 fill="#ff0000"
                 stroke-width="0"
                 id="path122"
                 style="fill:#75c700;fill-opacity:1" /></g></g></g></g><g
         transform="translate(19.76,191.16)"
         stroke-width="0"
         ns1:alignment="middle center"
         ns1:inkscapeversion="1.0.2"
         ns1:jacobian_sqrt="1.0"
         ns1:pdfconverter="inkscape"
         ns1:preamble="/home/mfourmy/.config/inkscape/extensions/textext/default_packages.tex"
         ns1:scale="1.0"
         ns1:stroke-to-path="0"
         ns1:texconverter="pdflatex"
         ns1:text="$0$"
         ns1:version="1.6.1"
         id="g140"><defs
   fill="#ff0000"
   id="defs132">
  </defs>
  <g
   id="id-21dd1926-c7d1-461d-a0bc-591a55d531bc"
   transform="translate(-149.1,-128.12)"
   fill="#ff0000">
    <g
   fill="#ff0000"
   stroke-width="0"
   id="g137">
      <g
   transform="translate(148.71,134.76)"
   fill="#ff0000"
   stroke-width="0"
   id="g135"><path
   id="id-beb767f3-8116-412d-b583-6148e96fc99f"
   d="m 4.5781,-3.1875 c 0,-0.79688 -0.046875,-1.5938 -0.39062,-2.3281 -0.45312,-0.96875 -1.2812,-1.125 -1.6875,-1.125 -0.60938,0 -1.3281,0.26562 -1.75,1.1875 -0.3125,0.6875 -0.35938,1.4688 -0.35938,2.2656 0,0.75 0.03125,1.6406 0.45312,2.4062 0.42188,0.79688 1.1562,1 1.6406,1 0.53125,0 1.2969,-0.20312 1.7344,-1.1562 0.3125,-0.6875 0.35938,-1.4688 0.35938,-2.25 z M 2.4843,0 C 2.09368,0 1.49992,-0.25 1.3281,-1.2031 1.21872,-1.79685 1.21872,-2.7187 1.21872,-3.3125 c 0,-0.64062 0,-1.2969 0.078125,-1.8281 0.1875,-1.1875 0.9375,-1.2812 1.1875,-1.2812 0.32812,0 0.98438,0.1875 1.1719,1.1719 0.10938,0.5625 0.10938,1.3125 0.10938,1.9375 0,0.75 0,1.4219 -0.10938,2.0625 -0.15625,0.95312 -0.71875,1.25 -1.1719,1.25 z"
   fill="#ff0000"
   stroke-width="0" />
      </g></g>
  </g>
</g><g
         transform="translate(130.79,74.457)"
         ns1:alignment="middle center"
         ns1:inkscapeversion="1.0.2"
         ns1:jacobian_sqrt="1.0"
         ns1:pdfconverter="inkscape"
         ns1:preamble="/home/mfourmy/.config/inkscape/extensions/textext/default_packages.tex"
         ns1:scale="1.0"
         ns1:stroke-to-path="0"
         ns1:texconverter="pdflatex"
         ns1:text="$2'$"
         ns1:version="1.6.1"
         id="g154"><defs
   id="defs142">
  </defs>
  <g
   transform="translate(-149.21,-127.26)"
   fill="#ff0000"
   id="g152">
    <g
   id="id-49ba517f-4dc6-4ac1-b18f-0fe80023ad7b">
      <g
   transform="translate(148.71,134.76)"
   fill="#ff0000"
   id="g146"><path
   d="m 1.2656,-0.76562 1.0625,-1.0312 c 1.5469,-1.375 2.1406,-1.9062 2.1406,-2.9062 0,-1.1406 -0.89062,-1.9375 -2.1094,-1.9375 -1.125,0 -1.8594,0.92188 -1.8594,1.8125 0,0.54688 0.5,0.54688 0.53125,0.54688 0.17188,0 0.51562,-0.10938 0.51562,-0.53125 0,-0.25 -0.1875,-0.51562 -0.53125,-0.51562 -0.078125,0 -0.09375,0 -0.125,0.015625 0.21875,-0.65625 0.76562,-1.0156 1.3438,-1.0156 0.90625,0 1.3281,0.8125 1.3281,1.625 0,0.79688 -0.48438,1.5781 -1.0469,2.2031 l -1.9062,2.125 c -0.10938,0.10938 -0.10938,0.14062 -0.10938,0.375 h 3.7031 l 0.26562,-1.7344 H 4.23428 c -0.0625,0.29688 -0.125,0.73438 -0.23438,0.89062 C 3.9374,-0.76554 3.28115,-0.76554 3.0624,-0.76554 Z"
   fill="#ff0000"
   id="path144" />
      </g></g>
      <g
   transform="translate(153.69,131.15)"
   fill="#ff0000"
   id="g150"><path
   id="id-7273d227-edce-44bd-9133-eb1f027926ea"
   d="m 2.0156,-3.2969 c 0.0625,-0.10938 0.0625,-0.17188 0.0625,-0.21875 0,-0.21875 -0.1875,-0.375 -0.40625,-0.375 -0.26562,0 -0.34375,0.21875 -0.375,0.32812 l -0.92188,3.0156 c -0.015625,0.015625 -0.046875,0.09375 -0.046875,0.10938 0,0.078125 0.21875,0.15625 0.28125,0.15625 0.046875,0 0.046875,-0.015625 0.09375,-0.125 z"
   fill="#ff0000" />
      </g>
  </g>
</g></g><g
       transform="translate(115.67,77.136)"
       fill="#ff6700"
       ns1:alignment="middle center"
       ns1:inkscapeversion="1.0.2"
       ns1:jacobian_sqrt="1.0"
       ns1:pdfconverter="inkscape"
       ns1:preamble="/home/mfourmy/.config/inkscape/extensions/textext/default_packages.tex"
       ns1:scale="1.0"
       ns1:stroke-to-path="0"
       ns1:texconverter="pdflatex"
       ns1:text="$2$"
       ns1:version="1.6.1"
       id="g167"
       style="fill:#75c700;fill-opacity:1"><defs
   id="defs158">
  </defs>
  <g
   id="id-1e1665b5-71b9-4463-9b75-d50ceee1672c"
   transform="translate(-149.21,-128.12)"
   fill="#ff6700"
   style="fill:#75c700;fill-opacity:1">
    <g
   fill="#ff6700"
   id="g164"
   style="fill:#75c700;fill-opacity:1">
      <g
   transform="translate(148.71,134.76)"
   fill="#ff6700"
   id="g162"
   style="fill:#75c700;fill-opacity:1"><path
   d="m 1.2656,-0.76562 1.0625,-1.0312 c 1.5469,-1.375 2.1406,-1.9062 2.1406,-2.9062 0,-1.1406 -0.89062,-1.9375 -2.1094,-1.9375 -1.125,0 -1.8594,0.92188 -1.8594,1.8125 0,0.54688 0.5,0.54688 0.53125,0.54688 0.17188,0 0.51562,-0.10938 0.51562,-0.53125 0,-0.25 -0.1875,-0.51562 -0.53125,-0.51562 -0.078125,0 -0.09375,0 -0.125,0.015625 0.21875,-0.65625 0.76562,-1.0156 1.3438,-1.0156 0.90625,0 1.3281,0.8125 1.3281,1.625 0,0.79688 -0.48438,1.5781 -1.0469,2.2031 l -1.9062,2.125 c -0.10938,0.10938 -0.10938,0.14062 -0.10938,0.375 h 3.7031 l 0.26562,-1.7344 H 4.23428 c -0.0625,0.29688 -0.125,0.73438 -0.23438,0.89062 C 3.9374,-0.76554 3.28115,-0.76554 3.0624,-0.76554 Z"
   fill="#ff6700"
   id="path160"
   style="fill:#75c700;fill-opacity:1" />
      </g></g>
  </g>
</g><g
       transform="rotate(-17.747,-294.17,-163.82)"
       fill="#ff6700"
       fill-rule="evenodd"
       stroke="#ff6700"
       stroke-width="0.75px"
       id="g173"
       style="fill:#75c700;fill-opacity:1;stroke:#75c700;stroke-opacity:1;stroke-width:0.75001875;stroke-miterlimit:4;stroke-dasharray:none"><path
         d="M 27.187,219.13 V 199.031"
         marker-end="url(#marker1541-8-0-28)"
         id="path169"
         style="fill:#75c700;fill-opacity:1;stroke:#75c700;stroke-opacity:1;stroke-width:0.75001875;stroke-miterlimit:4;stroke-dasharray:none;marker-end:url(#marker2780)" /><path
         d="M 27.187,219.13 H 47.286"
         marker-end="url(#marker1551-9-8-6)"
         id="path171"
         style="fill:#75c700;fill-opacity:1;stroke:#75c700;stroke-opacity:1;stroke-width:0.75001875;stroke-miterlimit:4;stroke-dasharray:none;marker-end:url(#marker2904)" /></g><path
       d="m 140.75,162.28 c 0,-2.652 2.23,-4.805 4.984,-4.805 1.321,0 2.59,0.504 3.524,1.407 0.937,0.902 1.461,2.125 1.461,3.398 0,2.656 -2.231,4.809 -4.985,4.809 -2.754,0 -4.984,-2.153 -4.984,-4.809 z"
       fill="#cfe2f3"
       fill-rule="evenodd"
       stroke="#666666"
       stroke-linejoin="round"
       stroke-width="0.75"
       id="path175" /><path
       d="m 144.6,162.28 c 0,-0.625 0.507,-1.133 1.132,-1.133 0.301,0 0.59,0.118 0.801,0.332 0.215,0.211 0.332,0.5 0.332,0.801 0,0.625 -0.504,1.133 -1.133,1.133 -0.625,0 -1.132,-0.508 -1.132,-1.133 z"
       fill="#5b6369"
       fill-rule="evenodd"
       id="path177" /><g
       transform="rotate(-16.414,-110.38,-220.24)"
       fill="none"
       stroke="#ff0000"
       stroke-width="0.75px"
       id="g183"><path
         d="M 27.187,219.13 V 199.031"
         marker-end="url(#marker1541-8-0-9)"
         id="path179" /><path
         d="M 27.187,219.13 H 47.286"
         marker-end="url(#marker1551-9-8-5)"
         id="path181" /></g><g
       id="g213"><g
         transform="rotate(19.895,248.34,528.72)"
         fill="#ff6700"
         fill-rule="evenodd"
         stroke="#ff6700"
         stroke-width="0.75px"
         id="g189"><path
           d="M 27.187,219.13 V 199.031"
           marker-end="url(#marker1541-8-0-28-8)"
           id="path185"
           style="fill:#75c700;fill-opacity:1;stroke:#75c700;stroke-opacity:1;stroke-width:0.75001875;stroke-miterlimit:4;stroke-dasharray:none;marker-end:url(#marker3034)" /><path
           d="M 27.187,219.13 H 47.286"
           marker-end="url(#marker1551-9-8-6-1)"
           id="path187"
           style="stroke:#75c700;stroke-opacity:1;stroke-width:0.75001875;stroke-miterlimit:4;stroke-dasharray:none;marker-end:url(#marker3170);fill:#75c700;fill-opacity:1" /></g><g
         transform="translate(142.28,133.58)"
         stroke-width="0"
         ns1:alignment="middle center"
         ns1:inkscapeversion="1.0.2"
         ns1:jacobian_sqrt="1.0"
         ns1:pdfconverter="inkscape"
         ns1:preamble="/home/mfourmy/.config/inkscape/extensions/textext/default_packages.tex"
         ns1:scale="1.0"
         ns1:stroke-to-path="0"
         ns1:texconverter="pdflatex"
         ns1:text="$3'$"
         ns1:version="1.6.1"
         id="g202"><defs
   fill="#ff0000"
   id="defs191">
  </defs>
  <g
   transform="translate(-149.13,-127.26)"
   fill="#ff0000"
   id="g200">
      <g
   transform="translate(148.71,134.76)"
   fill="#ff0000"
   stroke-width="0"
   id="g194"><path
   id="id-468a6c7d-92e1-44d7-bdc8-5fd962f63d9f"
   d="m 2.8906,-3.5156 c 0.8125,-0.26562 1.3906,-0.95312 1.3906,-1.75 0,-0.8125 -0.875,-1.375 -1.8281,-1.375 -1,0 -1.7656,0.59375 -1.7656,1.3594 0,0.32812 0.21875,0.51562 0.51562,0.51562 0.29687,0 0.5,-0.21875 0.5,-0.51562 0,-0.48438 -0.46875,-0.48438 -0.60938,-0.48438 0.29688,-0.5 0.95312,-0.625 1.3125,-0.625 0.42188,0 0.96875,0.21875 0.96875,1.1094 0,0.125 -0.03125,0.70312 -0.28125,1.1406 -0.29688,0.48438 -0.64062,0.51562 -0.89062,0.51562 -0.078125,0.015625 -0.3125,0.03125 -0.39062,0.03125 -0.078125,0.015625 -0.14062,0.03125 -0.14062,0.125 0,0.10938 0.0625,0.10938 0.23438,0.10938 h 0.4375 c 0.8125,0 1.1875,0.67188 1.1875,1.6562 0,1.3594 -0.6875,1.6406 -1.125,1.6406 -0.4375,0 -1.1875,-0.17188 -1.5312,-0.75 0.34375,0.046875 0.65625,-0.17188 0.65625,-0.54688 0,-0.35938 -0.26562,-0.5625 -0.54688,-0.5625 -0.25,0 -0.5625,0.14062 -0.5625,0.57812 0,0.90625 0.92188,1.5625 2.0156,1.5625 1.2188,0 2.125,-0.90625 2.125,-1.9219 0,-0.8125 -0.64062,-1.5938 -1.6719,-1.8125 z"
   fill="#ff0000"
   stroke-width="0" />
      </g>
      <g
   transform="translate(153.69,131.15)"
   fill="#ff0000"
   stroke-width="0"
   id="g198"><path
   d="m 2.0156,-3.2969 c 0.0625,-0.10938 0.0625,-0.17188 0.0625,-0.21875 0,-0.21875 -0.1875,-0.375 -0.40625,-0.375 -0.26562,0 -0.34375,0.21875 -0.375,0.32812 l -0.92188,3.0156 c -0.015625,0.015625 -0.046875,0.09375 -0.046875,0.10938 0,0.078125 0.21875,0.15625 0.28125,0.15625 0.046875,0 0.046875,-0.015625 0.09375,-0.125 z"
   fill="#ff0000"
   stroke-width="0"
   id="path196" />
      </g>
  </g>
</g><g
         transform="translate(156.83,138.6)"
         fill="#ff6700"
         stroke-width="0"
         ns1:alignment="middle center"
         ns1:inkscapeversion="1.0.2"
         ns1:jacobian_sqrt="1.0"
         ns1:pdfconverter="inkscape"
         ns1:preamble="/home/mfourmy/.config/inkscape/extensions/textext/default_packages.tex"
         ns1:scale="1.0"
         ns1:stroke-to-path="0"
         ns1:texconverter="pdflatex"
         ns1:text="$3$"
         ns1:version="1.6.1"
         id="g211"
         style="stroke:none;stroke-opacity:1;fill:#75c700;fill-opacity:1"><defs
   id="id-f80a19a0-bd53-4edc-8465-e064fb76ae8d">
  </defs>
  <g
   id="id-4402722e-4b83-46e0-85e6-35f2b1ab13cc"
   transform="translate(-149.13,-128.12)"
   style="stroke:none;stroke-opacity:1;fill:#75c700;fill-opacity:1">
    <g
   id="id-8a874ad9-f889-498f-abd6-156c3a77548e"
   fill="#ff6700"
   stroke-width="0"
   style="stroke:none;stroke-opacity:1;fill:#75c700;fill-opacity:1">
      <g
   transform="translate(148.71,134.76)"
   fill="#ff6700"
   stroke-width="0"
   id="g207"
   style="stroke:none;stroke-opacity:1;fill:#75c700;fill-opacity:1"><path
   d="m 2.8906,-3.5156 c 0.8125,-0.26562 1.3906,-0.95312 1.3906,-1.75 0,-0.8125 -0.875,-1.375 -1.8281,-1.375 -1,0 -1.7656,0.59375 -1.7656,1.3594 0,0.32812 0.21875,0.51562 0.51562,0.51562 0.29687,0 0.5,-0.21875 0.5,-0.51562 0,-0.48438 -0.46875,-0.48438 -0.60938,-0.48438 0.29688,-0.5 0.95312,-0.625 1.3125,-0.625 0.42188,0 0.96875,0.21875 0.96875,1.1094 0,0.125 -0.03125,0.70312 -0.28125,1.1406 -0.29688,0.48438 -0.64062,0.51562 -0.89062,0.51562 -0.078125,0.015625 -0.3125,0.03125 -0.39062,0.03125 -0.078125,0.015625 -0.14062,0.03125 -0.14062,0.125 0,0.10938 0.0625,0.10938 0.23438,0.10938 h 0.4375 c 0.8125,0 1.1875,0.67188 1.1875,1.6562 0,1.3594 -0.6875,1.6406 -1.125,1.6406 -0.4375,0 -1.1875,-0.17188 -1.5312,-0.75 0.34375,0.046875 0.65625,-0.17188 0.65625,-0.54688 0,-0.35938 -0.26562,-0.5625 -0.54688,-0.5625 -0.25,0 -0.5625,0.14062 -0.5625,0.57812 0,0.90625 0.92188,1.5625 2.0156,1.5625 1.2188,0 2.125,-0.90625 2.125,-1.9219 0,-0.8125 -0.64062,-1.5938 -1.6719,-1.8125 z"
   fill="#ff6700"
   stroke-width="0"
   id="path205"
   style="stroke:none;stroke-opacity:1;fill:#75c700;fill-opacity:1" />
      </g></g>
  </g>
</g></g><g
       transform="translate(126.97542,191.29006)"
       stroke-width="0"
       ns1:alignment="middle center"
       ns1:inkscapeversion="1.0.2"
       ns1:jacobian_sqrt="1.0"
       ns1:pdfconverter="inkscape"
       ns1:preamble="/home/mfourmy/.config/inkscape/extensions/textext/default_packages.tex"
       ns1:scale="1.0"
       ns1:stroke-to-path="0"
       ns1:texconverter="pdflatex"
       ns1:text="$4$"
       ns1:version="1.6.1"
       id="g230"><defs
   id="id-54d72ebf-df07-4668-b654-433647f7e74d"
   fill="#ff0000">
  </defs>
  <g
   transform="translate(-148.99,-128.02)"
   fill="#ff0000"
   id="g228">
    <g
   fill="#ff0000"
   stroke-width="0"
   id="g226">
      <g
   transform="translate(148.71,134.76)"
   fill="#ff0000"
   stroke-width="0"
   id="g224"><path
   d="m 2.9375,-1.6406 v 0.85938 c 0,0.35938 -0.03125,0.46875 -0.76562,0.46875 H 1.96876 V 3e-5 c 0.40625,-0.03125 0.92188,-0.03125 1.3438,-0.03125 0.42192,0 0.9375,0 1.3594,0.03125 v -0.3125 H 4.45321 c -0.73438,0 -0.75,-0.10938 -0.75,-0.46875 V -1.6406 H 4.68759 V -1.9531 H 3.70321 v -4.5312 c 0,-0.20312 0,-0.26562 -0.17188,-0.26562 -0.078125,0 -0.10938,0 -0.1875,0.125 l -3.0625,4.6719 v 0.3125 z m 0.046875,-0.3125 h -2.4219 l 2.4219,-3.7188 z"
   fill="#ff0000"
   stroke-width="0"
   id="path222" />
      </g></g>
  </g>
</g><path
       d="m 89.516272,217.24949 c 0,-1.1214 0.942953,-2.03179 2.107478,-2.03179 0.558161,0 1.095179,0.21311 1.49012,0.59495 0.394517,0.38141 0.617359,0.89855 0.617359,1.43684 0,1.12308 -0.944644,2.03348 -2.107479,2.03348 -1.164525,0 -2.107478,-0.9104 -2.107478,-2.03348 z"
       fill="#cfe2f3"
       fill-rule="evenodd"
       stroke="#666666"
       stroke-linejoin="round"
       stroke-width="0.422849"
       id="path52-7" /><path
       d="m 125.26625,217.86682 c 0,-1.1214 0.94295,-2.03179 2.10748,-2.03179 0.55816,0 1.09517,0.21311 1.49012,0.59495 0.39451,0.38141 0.61735,0.89855 0.61735,1.43684 0,1.12308 -0.94464,2.03348 -2.10747,2.03348 -1.16453,0 -2.10748,-0.9104 -2.10748,-2.03348 z"
       fill="#cfe2f3"
       fill-rule="evenodd"
       stroke="#666666"
       stroke-linejoin="round"
       stroke-width="0.422849"
       id="path52-7-8" /><g
       transform="rotate(20.165,81.12687,500.11354)"
       fill="none"
       stroke="#ff0000"
       stroke-width="0.75px"
       id="g219"><path
         d="M 27.187,219.13 V 199.031"
         marker-end="url(#marker1541-8-0-9-8)"
         id="path215" /><path
         d="M 27.187,219.13 H 47.286"
         marker-end="url(#marker1551-9-8-5-3)"
         id="path217" /></g></g><g
     transform="matrix(1.33333,0,0,1.33333,7.1730772,292.24032)"
     ns1:version="1.6.1"
     ns1:texconverter="pdflatex"
     ns1:pdfconverter="inkscape"
     ns1:text="$    \\Tbar{0}{k} = \\T{0}{1}(\\bfq_b) \\Tbar{1}{2'}\n    \\T{2'}{2}(q_2) \\Tbar{2}{3'}\n    \\T{3'}{3}(q_3) \\Tbar{3}{4}$"
     ns1:preamble="/home/mfourmy/.config/inkscape/extensions/textext/default_packages.tex"
     ns1:scale="1.0"
     ns1:alignment="middle center"
     ns1:stroke-to-path="0"
     ns1:inkscapeversion="1.0.2"
     ns1:jacobian_sqrt="1.33333"
     id="g1489"><defs
   id="id-bcd12a4d-646a-44cd-8dc9-ecd91d980846">
    <g
   id="id-5ed144a1-6911-4562-9e9b-6fdf8bc0096c">
      <symbol
   overflow="visible"
   id="id-cc648537-7dd5-4b1b-a393-010d28484c3d">
        <path
   style="stroke:none"
   d=""
   id="id-9808b64c-e54a-4227-9a44-dcf2625c37d7" />
      </symbol>
      <symbol
   overflow="visible"
   id="id-72249b34-58e3-4825-a863-f13ce89cb488">
        <path
   style="stroke:none"
   d="M 3.59375,-2.21875 C 3.59375,-2.984375 3.5,-3.546875 3.1875,-4.03125 2.96875,-4.34375 2.53125,-4.625 1.984375,-4.625 c -1.625,0 -1.625,1.90625 -1.625,2.40625 0,0.5 0,2.359375 1.625,2.359375 1.609375,0 1.609375,-1.859375 1.609375,-2.359375 z M 1.984375,-0.0625 c -0.328125,0 -0.75,-0.1875 -0.890625,-0.75 C 1,-1.21875 1,-1.796875 1,-2.3125 1,-2.828125 1,-3.359375 1.09375,-3.734375 1.25,-4.28125 1.6875,-4.4375 1.984375,-4.4375 c 0.375,0 0.734375,0.234375 0.859375,0.640625 0.109375,0.375 0.125,0.875 0.125,1.484375 0,0.515625 0,1.03125 -0.09375,1.46875 -0.140625,0.640625 -0.609375,0.78125 -0.890625,0.78125 z m 0,0"
   id="id-befce5f9-0e42-4a62-b93d-cfb176243495" />
      </symbol>
      <symbol
   overflow="visible"
   id="id-90e3671b-e40d-42cb-813a-02f1473c7195">
        <path
   style="stroke:none"
   d="m 2.328125,-4.4375 c 0,-0.1875 0,-0.1875 -0.203125,-0.1875 -0.453125,0.4375 -1.078125,0.4375 -1.359375,0.4375 v 0.25 c 0.15625,0 0.625,0 1,-0.1875 v 3.546875 c 0,0.234375 0,0.328125 -0.6875,0.328125 H 0.8125 V 0 c 0.125,0 0.984375,-0.03125 1.234375,-0.03125 0.21875,0 1.09375,0.03125 1.25,0.03125 V -0.25 H 3.03125 c -0.703125,0 -0.703125,-0.09375 -0.703125,-0.328125 z m 0,0"
   id="id-ff750454-96d6-4149-9f0d-8de40e0a7a94" />
      </symbol>
      <symbol
   overflow="visible"
   id="id-90ad3ba0-0349-425a-8f09-e96b8ee80a2d">
        <path
   style="stroke:none"
   d="M 3.515625,-1.265625 H 3.28125 c -0.015625,0.15625 -0.09375,0.5625 -0.1875,0.625 C 3.046875,-0.59375 2.515625,-0.59375 2.40625,-0.59375 H 1.125 c 0.734375,-0.640625 0.984375,-0.84375 1.390625,-1.171875 0.515625,-0.40625 1,-0.84375 1,-1.5 0,-0.84375 -0.734375,-1.359375 -1.625,-1.359375 -0.859375,0 -1.453125,0.609375 -1.453125,1.25 0,0.34375 0.296875,0.390625 0.375,0.390625 0.15625,0 0.359375,-0.125 0.359375,-0.375 0,-0.125 -0.046875,-0.375 -0.40625,-0.375 C 0.984375,-4.21875 1.453125,-4.375 1.78125,-4.375 c 0.703125,0 1.0625,0.546875 1.0625,1.109375 0,0.609375 -0.4375,1.078125 -0.65625,1.328125 L 0.515625,-0.265625 C 0.4375,-0.203125 0.4375,-0.1875 0.4375,0 h 2.875 z m 0,0"
   id="id-4c532a8e-172c-477a-9461-b39c4ba372c4" />
      </symbol>
      <symbol
   overflow="visible"
   id="id-09d404fa-9b99-421f-a262-f1b5d29da54c">
        <path
   style="stroke:none"
   d="m 1.90625,-2.328125 c 0.546875,0 0.9375,0.375 0.9375,1.125 0,0.859375 -0.515625,1.125 -0.90625,1.125 -0.28125,0 -0.90625,-0.078125 -1.1875,-0.5 0.328125,0 0.40625,-0.234375 0.40625,-0.390625 0,-0.21875 -0.171875,-0.375 -0.390625,-0.375 -0.1875,0 -0.390625,0.125 -0.390625,0.40625 0,0.65625 0.71875,1.078125 1.5625,1.078125 0.96875,0 1.640625,-0.65625 1.640625,-1.34375 0,-0.546875 -0.4375,-1.09375 -1.203125,-1.25 0.71875,-0.265625 0.984375,-0.78125 0.984375,-1.21875 0,-0.546875 -0.625,-0.953125 -1.40625,-0.953125 -0.765625,0 -1.359375,0.375 -1.359375,0.9375 0,0.234375 0.15625,0.359375 0.359375,0.359375 0.21875,0 0.359375,-0.15625 0.359375,-0.34375 0,-0.203125 -0.140625,-0.359375 -0.359375,-0.375 0.25,-0.296875 0.71875,-0.375 0.984375,-0.375 0.3125,0 0.75,0.15625 0.75,0.75 0,0.296875 -0.09375,0.625 -0.28125,0.828125 -0.21875,0.265625 -0.421875,0.28125 -0.765625,0.3125 -0.171875,0.015625 -0.1875,0.015625 -0.21875,0.015625 -0.015625,0 -0.078125,0.015625 -0.078125,0.09375 0,0.09375 0.0625,0.09375 0.1875,0.09375 z m 0,0"
   id="id-cfe713f5-f46d-404d-a63a-2b40ce15acec" />
      </symbol>
      <symbol
   overflow="visible"
   id="id-c8950203-db04-48f3-a64f-86d0f44386db">
        <path
   style="stroke:none"
   d="m 3.6875,-1.140625 v -0.25 H 2.90625 V -4.5 c 0,-0.140625 0,-0.203125 -0.140625,-0.203125 -0.09375,0 -0.125,0 -0.1875,0.109375 l -2.3125,3.203125 v 0.25 h 2.0625 v 0.5625 c 0,0.25 0,0.328125 -0.578125,0.328125 H 1.5625 V 0 C 1.921875,-0.015625 2.359375,-0.03125 2.609375,-0.03125 2.875,-0.03125 3.3125,-0.015625 3.671875,0 v -0.25 h -0.1875 C 2.90625,-0.25 2.90625,-0.328125 2.90625,-0.578125 v -0.5625 z M 2.375,-3.9375 v 2.546875 H 0.53125 Z m 0,0"
   id="id-9b59cf90-46a6-4fa2-9c6d-207e294d1c44" />
      </symbol>
      <symbol
   overflow="visible"
   id="id-52ba3206-8bfa-4e35-bbcf-1dc5e66bd756">
        <path
   style="stroke:none"
   d=""
   id="id-488fd791-317d-4f90-b9a4-0c0d402191f1" />
      </symbol>
      <symbol
   overflow="visible"
   id="id-0ed8f25d-891d-4689-9540-fe08499a64ef">
        <path
   style="stroke:none"
   d="M 4.28125,-5.578125 V -5.875 H 0.6875 v 0.296875 z m 0,0"
   id="id-77fd5bd6-98b8-4f29-9e10-85a63a465dda" />
      </symbol>
      <symbol
   overflow="visible"
   id="id-bddb1b0f-057b-4163-a47c-7f1008504aae">
        <path
   style="stroke:none"
   d="m 6.84375,-3.265625 c 0.15625,0 0.34375,0 0.34375,-0.1875 C 7.1875,-3.65625 7,-3.65625 6.859375,-3.65625 h -5.96875 c -0.140625,0 -0.328125,0 -0.328125,0.203125 0,0.1875 0.1875,0.1875 0.328125,0.1875 z m 0.015625,1.9375 c 0.140625,0 0.328125,0 0.328125,-0.203125 0,-0.1875 -0.1875,-0.1875 -0.34375,-0.1875 H 0.890625 c -0.140625,0 -0.328125,0 -0.328125,0.1875 0,0.203125 0.1875,0.203125 0.328125,0.203125 z m 0,0"
   id="id-84cf01d6-5e17-48c4-95fe-a6b5c089a2a9" />
      </symbol>
      <symbol
   overflow="visible"
   id="id-c891f585-76f3-469b-a48b-617966c32bb6">
        <path
   style="stroke:none"
   d="m 3.296875,2.390625 c 0,-0.03125 0,-0.046875 -0.171875,-0.21875 C 1.890625,0.921875 1.5625,-0.96875 1.5625,-2.5 c 0,-1.734375 0.375,-3.46875 1.609375,-4.703125 0.125,-0.125 0.125,-0.140625 0.125,-0.171875 0,-0.078125 -0.03125,-0.109375 -0.09375,-0.109375 -0.109375,0 -1,0.6875 -1.59375,1.953125 -0.5,1.09375 -0.625,2.203125 -0.625,3.03125 0,0.78125 0.109375,1.984375 0.65625,3.125 C 2.25,1.84375 3.09375,2.5 3.203125,2.5 c 0.0625,0 0.09375,-0.03125 0.09375,-0.109375 z m 0,0"
   id="id-f285b755-96ed-4a40-8d78-3c3f625b3547" />
      </symbol>
      <symbol
   overflow="visible"
   id="id-7cbf6428-eb1e-42e9-9c7f-0bfe00aea0a5">
        <path
   style="stroke:none"
   d="m 2.875,-2.5 c 0,-0.765625 -0.109375,-1.96875 -0.65625,-3.109375 -0.59375,-1.21875 -1.453125,-1.875 -1.546875,-1.875 -0.0625,0 -0.109375,0.046875 -0.109375,0.109375 0,0.03125 0,0.046875 0.1875,0.234375 0.984375,0.984375 1.546875,2.5625 1.546875,4.640625 0,1.71875 -0.359375,3.46875 -1.59375,4.71875 C 0.5625,2.34375 0.5625,2.359375 0.5625,2.390625 0.5625,2.453125 0.609375,2.5 0.671875,2.5 0.765625,2.5 1.671875,1.8125 2.25,0.546875 2.765625,-0.546875 2.875,-1.65625 2.875,-2.5 Z m 0,0"
   id="id-7d3b0ee2-bf33-410b-b542-5ad5800de36b" />
      </symbol>
      <symbol
   overflow="visible"
   id="id-0aed0443-e793-48f5-b3f4-e07b1899ff8c">
        <path
   style="stroke:none"
   d=""
   id="id-84c43f45-d807-4497-b11c-cea3cd9d1a4a" />
      </symbol>
      <symbol
   overflow="visible"
   id="id-19f479a2-7d52-4fa2-900f-80c8bbf07ed9">
        <path
   style="stroke:none"
   d="M 7.34375,-6.734375 H 0.625 l -0.203125,2.40625 h 0.46875 c 0.09375,-1.125 0.1875,-1.9375 1.625,-1.9375 H 3.28125 V -0.46875 H 1.75 V 0 c 0.546875,-0.03125 1.65625,-0.03125 2.234375,-0.03125 0.59375,0 1.703125,0 2.234375,0.03125 V -0.46875 H 4.6875 v -5.796875 h 0.765625 c 1.421875,0 1.53125,0.796875 1.625,1.9375 h 0.46875 z m 0,0"
   id="id-ac83702d-fec8-4e92-843f-b7df3df748d2" />
      </symbol>
      <symbol
   overflow="visible"
   id="id-1356af10-1f4d-4ef2-9284-84066ac9c872">
        <path
   style="stroke:none"
   d="m 4.234375,-1.421875 c 0,0.1875 0,0.21875 -0.15625,0.421875 -0.40625,0.59375 -0.90625,0.703125 -1.203125,0.703125 -0.625,0 -1.21875,-0.578125 -1.21875,-1.90625 0,-1.421875 0.734375,-1.890625 1.328125,-1.890625 0.765625,0 1.25,0.796875 1.25,1.296875 z m 0.125,-2.28125 c -0.34375,-0.484375 -0.90625,-0.78125 -1.5,-0.78125 -1.453125,0 -2.484375,0.890625 -2.484375,2.265625 0,1.40625 1.015625,2.28125 2.390625,2.28125 0.5,0 0.9375,-0.140625 1.40625,-0.546875 V 1.46875 h -0.6875 V 1.9375 c 0.28125,-0.015625 0.875,-0.03125 1.25,-0.03125 0.390625,0 0.984375,0.015625 1.25,0.03125 V 1.46875 h -0.6875 v -5.953125 h -0.40625 z m 0,0"
   id="id-639a8527-cde1-44cc-bbdb-0f93325b985f" />
      </symbol>
      <symbol
   overflow="visible"
   id="id-22447127-b553-420e-919f-6c21e3532030">
        <path
   style="stroke:none"
   d=""
   id="id-8c434e35-d519-498e-975f-1c9cec427d99" />
      </symbol>
      <symbol
   overflow="visible"
   id="id-add3a56c-c0d5-4bea-ba10-49a0a3ed8a77">
        <path
   style="stroke:none"
   d="m 2.1875,-4.625 c 0,-0.015625 0.015625,-0.109375 0.015625,-0.109375 0,-0.046875 -0.015625,-0.109375 -0.109375,-0.109375 -0.140625,0 -0.71875,0.0625 -0.890625,0.078125 -0.046875,0 -0.15625,0.015625 -0.15625,0.15625 0,0.09375 0.109375,0.09375 0.1875,0.09375 0.328125,0 0.328125,0.0625 0.328125,0.109375 0,0.046875 -0.015625,0.09375 -0.015625,0.15625 L 0.5625,-0.3125 c -0.046875,0.125 -0.046875,0.140625 -0.046875,0.15625 0,0.109375 0.09375,0.21875 0.25,0.21875 0.1875,0 0.265625,-0.125 0.3125,-0.28125 0.015625,-0.03125 0.3125,-1.265625 0.34375,-1.359375 0.5,0.046875 0.890625,0.21875 0.890625,0.578125 0,0.03125 0,0.0625 -0.015625,0.140625 -0.03125,0.09375 -0.03125,0.140625 -0.03125,0.21875 0,0.484375 0.40625,0.703125 0.75,0.703125 0.671875,0 0.875,-1.046875 0.875,-1.0625 0,-0.09375 -0.078125,-0.09375 -0.109375,-0.09375 -0.09375,0 -0.109375,0.046875 -0.140625,0.171875 C 3.5625,-0.625 3.375,-0.125 3.03125,-0.125 c -0.1875,0 -0.25,-0.171875 -0.25,-0.359375 0,-0.125 0,-0.140625 0.046875,-0.3125 0.015625,-0.03125 0.03125,-0.140625 0.03125,-0.21875 0,-0.625 -0.828125,-0.71875 -1.125,-0.734375 C 1.9375,-1.875 2.1875,-2.109375 2.3125,-2.21875 2.671875,-2.546875 3.015625,-2.875 3.40625,-2.875 c 0.078125,0 0.171875,0.015625 0.234375,0.09375 C 3.34375,-2.734375 3.28125,-2.5 3.28125,-2.390625 c 0,0.140625 0.109375,0.25 0.265625,0.25 0.203125,0 0.40625,-0.15625 0.40625,-0.4375 0,-0.234375 -0.171875,-0.5 -0.53125,-0.5 -0.40625,0 -0.765625,0.296875 -1.125,0.625 C 2,-2.1875 1.78125,-1.96875 1.484375,-1.84375 Z m 0,0"
   id="id-af7e5457-3449-4107-9ad6-c2beadc8ce70" />
      </symbol>
      <symbol
   overflow="visible"
   id="id-85d6d2e0-d54c-4f7d-bc9a-f6f0873ebeac">
        <path
   style="stroke:none"
   d="m 1.84375,-4.625 c 0,-0.015625 0.03125,-0.109375 0.03125,-0.109375 0,-0.046875 -0.03125,-0.109375 -0.125,-0.109375 -0.140625,0 -0.71875,0.0625 -0.890625,0.078125 -0.046875,0 -0.15625,0.015625 -0.15625,0.15625 0,0.09375 0.109375,0.09375 0.1875,0.09375 0.328125,0 0.328125,0.0625 0.328125,0.109375 0,0.046875 -0.0625,0.328125 -0.109375,0.484375 l -0.15625,0.640625 c -0.0625,0.25 -0.4375,1.765625 -0.453125,1.859375 -0.046875,0.171875 -0.046875,0.265625 -0.046875,0.34375 0,0.703125 0.453125,1.140625 1.03125,1.140625 0.875,0 1.796875,-0.9375 1.796875,-1.96875 0,-0.8125 -0.5625,-1.171875 -1.046875,-1.171875 -0.359375,0 -0.671875,0.203125 -0.875,0.390625 z m -0.359375,4.5 c -0.328125,0 -0.53125,-0.296875 -0.53125,-0.71875 0,-0.25 0.0625,-0.484375 0.265625,-1.28125 C 1.25,-2.25 1.25,-2.265625 1.390625,-2.421875 1.65625,-2.71875 1.96875,-2.875 2.21875,-2.875 c 0.265625,0 0.5,0.203125 0.5,0.671875 0,0.28125 -0.140625,1 -0.359375,1.40625 C 2.1875,-0.453125 1.84375,-0.125 1.484375,-0.125 Z m 0,0"
   id="id-4ece57b6-9bd7-4638-b946-3fccbaa7d6d8" />
      </symbol>
      <symbol
   overflow="visible"
   id="id-c7bc41b7-9a0d-46b1-b4e3-c8d23529d8ca">
        <path
   style="stroke:none"
   d=""
   id="id-4fa78223-d6dd-4d47-8c59-188dd9943054" />
      </symbol>
      <symbol
   overflow="visible"
   id="id-e0bc30f5-6b62-4245-8dfc-a6e561e84690">
        <path
   style="stroke:none"
   d="m 1.796875,-2.3125 c 0,-0.015625 0.046875,-0.109375 0.046875,-0.1875 0,-0.171875 -0.15625,-0.28125 -0.3125,-0.28125 -0.203125,0 -0.25,0.15625 -0.28125,0.21875 L 0.484375,-0.40625 C 0.46875,-0.34375 0.46875,-0.328125 0.46875,-0.3125 c 0,0.078125 0.203125,0.125 0.203125,0.125 0.046875,0 0.0625,-0.03125 0.09375,-0.09375 z m 0,0"
   id="id-d0d090a6-da0e-4287-8632-d1aad781244f" />
      </symbol>
      <symbol
   overflow="visible"
   id="id-cc037a67-d4f2-4186-b3a8-a96aec54a48e">
        <path
   style="stroke:none"
   d=""
   id="id-b77c40b7-5604-452a-9b80-71432ca4bcc6" />
      </symbol>
      <symbol
   overflow="visible"
   id="id-aa7eebc3-e02e-40f2-b97c-105e9aedc1a3">
        <path
   style="stroke:none"
   d="m 4.5,-4.296875 c 0,-0.046875 -0.03125,-0.09375 -0.09375,-0.09375 -0.109375,0 -0.515625,0.390625 -0.671875,0.6875 C 3.515625,-4.25 3.125,-4.40625 2.796875,-4.40625 c -1.171875,0 -2.390625,1.46875 -2.390625,2.921875 0,0.96875 0.578125,1.59375 1.3125,1.59375 0.421875,0 0.8125,-0.234375 1.171875,-0.59375 -0.09375,0.34375 -0.421875,1.6875 -0.453125,1.78125 -0.078125,0.28125 -0.15625,0.3125 -0.71875,0.328125 -0.125,0 -0.21875,0 -0.21875,0.203125 0,0 0,0.109375 0.125,0.109375 0.3125,0 0.671875,-0.03125 1,-0.03125 0.328125,0 0.6875,0.03125 1.03125,0.03125 0.046875,0 0.171875,0 0.171875,-0.203125 C 3.828125,1.625 3.734375,1.625 3.5625,1.625 3.09375,1.625 3.09375,1.5625 3.09375,1.46875 3.09375,1.390625 3.109375,1.328125 3.125,1.25 Z m -2.75,4.1875 c -0.609375,0 -0.640625,-0.765625 -0.640625,-0.9375 0,-0.484375 0.28125,-1.5625 0.453125,-1.984375 0.3125,-0.734375 0.828125,-1.15625 1.234375,-1.15625 0.65625,0 0.796875,0.8125 0.796875,0.875 0,0.0625 -0.546875,2.25 -0.578125,2.28125 C 2.859375,-0.75 2.296875,-0.109375 1.75,-0.109375 Z m 0,0"
   id="id-6b302203-1e4d-4374-a54b-80135471af87" />
      </symbol>
    </g>
  </defs>
  <g
   id="id-e13b5030-13ef-4a0f-b943-d7bfaa40e9d0"
   transform="translate(-149.071,-124.671)">
    <g
   style="fill:#000000;fill-opacity:1"
   id="id-e1e7ef8e-18f9-4cbe-9432-5cb4fb4018bf">
      <g
   transform="translate(148.712,129.296)"
   id="g1896"><path
   style="stroke:none"
   d="M 3.59375,-2.21875 C 3.59375,-2.984375 3.5,-3.546875 3.1875,-4.03125 2.96875,-4.34375 2.53125,-4.625 1.984375,-4.625 c -1.625,0 -1.625,1.90625 -1.625,2.40625 0,0.5 0,2.359375 1.625,2.359375 1.609375,0 1.609375,-1.859375 1.609375,-2.359375 z M 1.984375,-0.0625 c -0.328125,0 -0.75,-0.1875 -0.890625,-0.75 C 1,-1.21875 1,-1.796875 1,-2.3125 1,-2.828125 1,-3.359375 1.09375,-3.734375 1.25,-4.28125 1.6875,-4.4375 1.984375,-4.4375 c 0.375,0 0.734375,0.234375 0.859375,0.640625 0.109375,0.375 0.125,0.875 0.125,1.484375 0,0.515625 0,1.03125 -0.09375,1.46875 -0.140625,0.640625 -0.609375,0.78125 -0.890625,0.78125 z m 0,0"
   id="id-ca29b56e-4bbd-4e85-97d9-363e8dc5013f" />
      </g></g>
    <g
   style="fill:#000000;fill-opacity:1"
   id="id-5da5631d-b546-4d02-b97b-cc5438a884dd">
      <g
   transform="translate(154.676,132.49)"
   id="g1900"><path
   style="stroke:none"
   d="M 4.28125,-5.578125 V -5.875 H 0.6875 v 0.296875 z m 0,0"
   id="id-e379fd0e-b744-46fa-82c4-e56c73258711" />
      </g></g>
    <g
   style="fill:#000000;fill-opacity:1"
   id="id-595f0e01-d5e1-4e3e-822d-f2b38ac46203">
      <g
   transform="translate(153.182,135.036)"
   id="g1904"><path
   style="stroke:none"
   d="M 7.34375,-6.734375 H 0.625 l -0.203125,2.40625 h 0.46875 c 0.09375,-1.125 0.1875,-1.9375 1.625,-1.9375 H 3.28125 V -0.46875 H 1.75 V 0 c 0.546875,-0.03125 1.65625,-0.03125 2.234375,-0.03125 0.59375,0 1.703125,0 2.234375,0.03125 V -0.46875 H 4.6875 v -5.796875 h 0.765625 c 1.421875,0 1.53125,0.796875 1.625,1.9375 h 0.46875 z m 0,0"
   id="id-47286e24-5e66-4fd5-833d-a2fe30d758e7" />
      </g></g>
    <g
   style="fill:#000000;fill-opacity:1"
   id="id-b22132da-9241-4ad0-8009-ff6e04c39f1f">
      <g
   transform="translate(161.152,136.53)"
   id="g1908"><path
   style="stroke:none"
   d="m 2.1875,-4.625 c 0,-0.015625 0.015625,-0.109375 0.015625,-0.109375 0,-0.046875 -0.015625,-0.109375 -0.109375,-0.109375 -0.140625,0 -0.71875,0.0625 -0.890625,0.078125 -0.046875,0 -0.15625,0.015625 -0.15625,0.15625 0,0.09375 0.109375,0.09375 0.1875,0.09375 0.328125,0 0.328125,0.0625 0.328125,0.109375 0,0.046875 -0.015625,0.09375 -0.015625,0.15625 L 0.5625,-0.3125 c -0.046875,0.125 -0.046875,0.140625 -0.046875,0.15625 0,0.109375 0.09375,0.21875 0.25,0.21875 0.1875,0 0.265625,-0.125 0.3125,-0.28125 0.015625,-0.03125 0.3125,-1.265625 0.34375,-1.359375 0.5,0.046875 0.890625,0.21875 0.890625,0.578125 0,0.03125 0,0.0625 -0.015625,0.140625 -0.03125,0.09375 -0.03125,0.140625 -0.03125,0.21875 0,0.484375 0.40625,0.703125 0.75,0.703125 0.671875,0 0.875,-1.046875 0.875,-1.0625 0,-0.09375 -0.078125,-0.09375 -0.109375,-0.09375 -0.09375,0 -0.109375,0.046875 -0.140625,0.171875 C 3.5625,-0.625 3.375,-0.125 3.03125,-0.125 c -0.1875,0 -0.25,-0.171875 -0.25,-0.359375 0,-0.125 0,-0.140625 0.046875,-0.3125 0.015625,-0.03125 0.03125,-0.140625 0.03125,-0.21875 0,-0.625 -0.828125,-0.71875 -1.125,-0.734375 C 1.9375,-1.875 2.1875,-2.109375 2.3125,-2.21875 2.671875,-2.546875 3.015625,-2.875 3.40625,-2.875 c 0.078125,0 0.171875,0.015625 0.234375,0.09375 C 3.34375,-2.734375 3.28125,-2.5 3.28125,-2.390625 c 0,0.140625 0.109375,0.25 0.265625,0.25 0.203125,0 0.40625,-0.15625 0.40625,-0.4375 0,-0.234375 -0.171875,-0.5 -0.53125,-0.5 -0.40625,0 -0.765625,0.296875 -1.125,0.625 C 2,-2.1875 1.78125,-1.96875 1.484375,-1.84375 Z m 0,0"
   id="id-c8f0356d-1f93-40bf-b059-cd22dc6d223a" />
      </g></g>
    <g
   style="fill:#000000;fill-opacity:1"
   id="id-d294f2a1-35e6-4376-9468-1e3fec702637">
      <g
   transform="translate(168.821,135.036)"
   id="g1912"><path
   style="stroke:none"
   d="m 6.84375,-3.265625 c 0.15625,0 0.34375,0 0.34375,-0.1875 C 7.1875,-3.65625 7,-3.65625 6.859375,-3.65625 h -5.96875 c -0.140625,0 -0.328125,0 -0.328125,0.203125 0,0.1875 0.1875,0.1875 0.328125,0.1875 z m 0.015625,1.9375 c 0.140625,0 0.328125,0 0.328125,-0.203125 0,-0.1875 -0.1875,-0.1875 -0.34375,-0.1875 H 0.890625 c -0.140625,0 -0.328125,0 -0.328125,0.1875 0,0.203125 0.1875,0.203125 0.328125,0.203125 z m 0,0"
   id="id-3a436c60-96d8-4330-aa25-53a9b223b282" />
      </g></g>
    <g
   style="fill:#000000;fill-opacity:1"
   id="id-570deeb4-0e80-449c-a192-c7d0b7a0e071">
      <g
   transform="translate(179.337,130.663)"
   id="g1916"><path
   style="stroke:none"
   d="M 3.59375,-2.21875 C 3.59375,-2.984375 3.5,-3.546875 3.1875,-4.03125 2.96875,-4.34375 2.53125,-4.625 1.984375,-4.625 c -1.625,0 -1.625,1.90625 -1.625,2.40625 0,0.5 0,2.359375 1.625,2.359375 1.609375,0 1.609375,-1.859375 1.609375,-2.359375 z M 1.984375,-0.0625 c -0.328125,0 -0.75,-0.1875 -0.890625,-0.75 C 1,-1.21875 1,-1.796875 1,-2.3125 1,-2.828125 1,-3.359375 1.09375,-3.734375 1.25,-4.28125 1.6875,-4.4375 1.984375,-4.4375 c 0.375,0 0.734375,0.234375 0.859375,0.640625 0.109375,0.375 0.125,0.875 0.125,1.484375 0,0.515625 0,1.03125 -0.09375,1.46875 -0.140625,0.640625 -0.609375,0.78125 -0.890625,0.78125 z m 0,0"
   id="id-5c851c5c-2b6a-4f3b-a0c9-fa452541b088" />
      </g></g>
    <g
   style="fill:#000000;fill-opacity:1"
   id="id-4cb983db-3d0e-49dc-99ea-ee22f55b4336">
      <g
   transform="translate(183.806,135.036)"
   id="g1920"><path
   style="stroke:none"
   d="M 7.34375,-6.734375 H 0.625 l -0.203125,2.40625 h 0.46875 c 0.09375,-1.125 0.1875,-1.9375 1.625,-1.9375 H 3.28125 V -0.46875 H 1.75 V 0 c 0.546875,-0.03125 1.65625,-0.03125 2.234375,-0.03125 0.59375,0 1.703125,0 2.234375,0.03125 V -0.46875 H 4.6875 v -5.796875 h 0.765625 c 1.421875,0 1.53125,0.796875 1.625,1.9375 h 0.46875 z m 0,0"
   id="id-99837a55-17d1-4fe9-ae34-d99cab407de7" />
      </g></g>
    <g
   style="fill:#000000;fill-opacity:1"
   id="id-b1275cc2-0f60-4b69-8e70-c24ed0e8c512">
      <g
   transform="translate(191.776,136.53)"
   id="g1924"><path
   style="stroke:none"
   d="m 2.328125,-4.4375 c 0,-0.1875 0,-0.1875 -0.203125,-0.1875 -0.453125,0.4375 -1.078125,0.4375 -1.359375,0.4375 v 0.25 c 0.15625,0 0.625,0 1,-0.1875 v 3.546875 c 0,0.234375 0,0.328125 -0.6875,0.328125 H 0.8125 V 0 c 0.125,0 0.984375,-0.03125 1.234375,-0.03125 0.21875,0 1.09375,0.03125 1.25,0.03125 V -0.25 H 3.03125 c -0.703125,0 -0.703125,-0.09375 -0.703125,-0.328125 z m 0,0"
   id="id-e6e3312b-34d9-4f59-946e-5578a862d487" />
      </g></g>
    <g
   style="fill:#000000;fill-opacity:1"
   id="id-55c72cb2-d801-4807-b647-b3aa241810d1">
      <g
   transform="translate(196.246,135.036)"
   id="g1928"><path
   style="stroke:none"
   d="m 3.296875,2.390625 c 0,-0.03125 0,-0.046875 -0.171875,-0.21875 C 1.890625,0.921875 1.5625,-0.96875 1.5625,-2.5 c 0,-1.734375 0.375,-3.46875 1.609375,-4.703125 0.125,-0.125 0.125,-0.140625 0.125,-0.171875 0,-0.078125 -0.03125,-0.109375 -0.09375,-0.109375 -0.109375,0 -1,0.6875 -1.59375,1.953125 -0.5,1.09375 -0.625,2.203125 -0.625,3.03125 0,0.78125 0.109375,1.984375 0.65625,3.125 C 2.25,1.84375 3.09375,2.5 3.203125,2.5 c 0.0625,0 0.09375,-0.03125 0.09375,-0.109375 z m 0,0"
   id="id-7e51b785-adf0-4afe-b9e0-286ef17fcc69" />
      </g></g>
    <g
   style="fill:#000000;fill-opacity:1"
   id="id-18e9d5fb-52a3-489c-a064-11de9051c75b">
      <g
   transform="translate(200.12,135.036)"
   id="g1932"><path
   style="stroke:none"
   d="m 4.234375,-1.421875 c 0,0.1875 0,0.21875 -0.15625,0.421875 -0.40625,0.59375 -0.90625,0.703125 -1.203125,0.703125 -0.625,0 -1.21875,-0.578125 -1.21875,-1.90625 0,-1.421875 0.734375,-1.890625 1.328125,-1.890625 0.765625,0 1.25,0.796875 1.25,1.296875 z m 0.125,-2.28125 c -0.34375,-0.484375 -0.90625,-0.78125 -1.5,-0.78125 -1.453125,0 -2.484375,0.890625 -2.484375,2.265625 0,1.40625 1.015625,2.28125 2.390625,2.28125 0.5,0 0.9375,-0.140625 1.40625,-0.546875 V 1.46875 h -0.6875 V 1.9375 c 0.28125,-0.015625 0.875,-0.03125 1.25,-0.03125 0.390625,0 0.984375,0.015625 1.25,0.03125 V 1.46875 h -0.6875 v -5.953125 h -0.40625 z m 0,0"
   id="id-90c60e6f-6e84-4e27-aae9-db5b537ec323" />
      </g></g>
    <g
   style="fill:#000000;fill-opacity:1"
   id="id-5d4dd2b1-8ab3-4a08-b8fb-02ada068cc84">
      <g
   transform="translate(206.167,136.53)"
   id="g1936"><path
   style="stroke:none"
   d="m 1.84375,-4.625 c 0,-0.015625 0.03125,-0.109375 0.03125,-0.109375 0,-0.046875 -0.03125,-0.109375 -0.125,-0.109375 -0.140625,0 -0.71875,0.0625 -0.890625,0.078125 -0.046875,0 -0.15625,0.015625 -0.15625,0.15625 0,0.09375 0.109375,0.09375 0.1875,0.09375 0.328125,0 0.328125,0.0625 0.328125,0.109375 0,0.046875 -0.0625,0.328125 -0.109375,0.484375 l -0.15625,0.640625 c -0.0625,0.25 -0.4375,1.765625 -0.453125,1.859375 -0.046875,0.171875 -0.046875,0.265625 -0.046875,0.34375 0,0.703125 0.453125,1.140625 1.03125,1.140625 0.875,0 1.796875,-0.9375 1.796875,-1.96875 0,-0.8125 -0.5625,-1.171875 -1.046875,-1.171875 -0.359375,0 -0.671875,0.203125 -0.875,0.390625 z m -0.359375,4.5 c -0.328125,0 -0.53125,-0.296875 -0.53125,-0.71875 0,-0.25 0.0625,-0.484375 0.265625,-1.28125 C 1.25,-2.25 1.25,-2.265625 1.390625,-2.421875 1.65625,-2.71875 1.96875,-2.875 2.21875,-2.875 c 0.265625,0 0.5,0.203125 0.5,0.671875 0,0.28125 -0.140625,1 -0.359375,1.40625 C 2.1875,-0.453125 1.84375,-0.125 1.484375,-0.125 Z m 0,0"
   id="id-7aa60254-a0ca-4668-a1fc-3470a6a174be" />
      </g></g>
    <g
   style="fill:#000000;fill-opacity:1"
   id="id-583c4924-5854-4d9e-9fc1-33048f612a43">
      <g
   transform="translate(210.169,135.036)"
   id="g1940"><path
   style="stroke:none"
   d="m 2.875,-2.5 c 0,-0.765625 -0.109375,-1.96875 -0.65625,-3.109375 -0.59375,-1.21875 -1.453125,-1.875 -1.546875,-1.875 -0.0625,0 -0.109375,0.046875 -0.109375,0.109375 0,0.03125 0,0.046875 0.1875,0.234375 0.984375,0.984375 1.546875,2.5625 1.546875,4.640625 0,1.71875 -0.359375,3.46875 -1.59375,4.71875 C 0.5625,2.34375 0.5625,2.359375 0.5625,2.390625 0.5625,2.453125 0.609375,2.5 0.671875,2.5 0.765625,2.5 1.671875,1.8125 2.25,0.546875 2.765625,-0.546875 2.875,-1.65625 2.875,-2.5 Z m 0,0"
   id="id-6ebcd48d-50fc-4318-991a-fe69785e7423" />
      </g></g>
    <g
   style="fill:#000000;fill-opacity:1"
   id="id-98101fb2-70ce-4a35-851f-d7bdd6383895">
      <g
   transform="translate(215.703,129.296)"
   id="g1944"><path
   style="stroke:none"
   d="m 2.328125,-4.4375 c 0,-0.1875 0,-0.1875 -0.203125,-0.1875 -0.453125,0.4375 -1.078125,0.4375 -1.359375,0.4375 v 0.25 c 0.15625,0 0.625,0 1,-0.1875 v 3.546875 c 0,0.234375 0,0.328125 -0.6875,0.328125 H 0.8125 V 0 c 0.125,0 0.984375,-0.03125 1.234375,-0.03125 0.21875,0 1.09375,0.03125 1.25,0.03125 V -0.25 H 3.03125 c -0.703125,0 -0.703125,-0.09375 -0.703125,-0.328125 z m 0,0"
   id="id-8a7bfb8d-324d-4c16-8bbf-946bc021530c" />
      </g></g>
    <g
   style="fill:#000000;fill-opacity:1"
   id="id-500aaa5c-49e0-4b51-a4b5-f07c9946915c">
      <g
   transform="translate(221.667,132.49)"
   id="g1948"><path
   style="stroke:none"
   d="M 4.28125,-5.578125 V -5.875 H 0.6875 v 0.296875 z m 0,0"
   id="id-1b839bee-5855-4d0c-94fa-f3f42ad19b85" />
      </g></g>
    <g
   style="fill:#000000;fill-opacity:1"
   id="id-90864976-c7a8-4317-b13d-ef9a7aecb701">
      <g
   transform="translate(220.173,135.036)"
   id="g1952"><path
   style="stroke:none"
   d="M 7.34375,-6.734375 H 0.625 l -0.203125,2.40625 h 0.46875 c 0.09375,-1.125 0.1875,-1.9375 1.625,-1.9375 H 3.28125 V -0.46875 H 1.75 V 0 c 0.546875,-0.03125 1.65625,-0.03125 2.234375,-0.03125 0.59375,0 1.703125,0 2.234375,0.03125 V -0.46875 H 4.6875 v -5.796875 h 0.765625 c 1.421875,0 1.53125,0.796875 1.625,1.9375 h 0.46875 z m 0,0"
   id="id-e17315e7-d106-4733-b67e-f959649a7023" />
      </g></g>
    <g
   style="fill:#000000;fill-opacity:1"
   id="id-a5d10327-d29a-400f-9a81-a79da57efe63">
      <g
   transform="translate(228.143,136.53)"
   id="g1956"><path
   style="stroke:none"
   d="M 3.515625,-1.265625 H 3.28125 c -0.015625,0.15625 -0.09375,0.5625 -0.1875,0.625 C 3.046875,-0.59375 2.515625,-0.59375 2.40625,-0.59375 H 1.125 c 0.734375,-0.640625 0.984375,-0.84375 1.390625,-1.171875 0.515625,-0.40625 1,-0.84375 1,-1.5 0,-0.84375 -0.734375,-1.359375 -1.625,-1.359375 -0.859375,0 -1.453125,0.609375 -1.453125,1.25 0,0.34375 0.296875,0.390625 0.375,0.390625 0.15625,0 0.359375,-0.125 0.359375,-0.375 0,-0.125 -0.046875,-0.375 -0.40625,-0.375 C 0.984375,-4.21875 1.453125,-4.375 1.78125,-4.375 c 0.703125,0 1.0625,0.546875 1.0625,1.109375 0,0.609375 -0.4375,1.078125 -0.65625,1.328125 L 0.515625,-0.265625 C 0.4375,-0.203125 0.4375,-0.1875 0.4375,0 h 2.875 z m 0,0"
   id="id-d41ecc8d-78bb-4ac2-9e7c-3f19cfbedd13" />
      </g></g>
    <g
   style="fill:#000000;fill-opacity:1"
   id="id-791462df-3c42-4cd6-b3f6-9488645b4dcf">
      <g
   transform="translate(232.114,134.538)"
   id="g1960"><path
   style="stroke:none"
   d="m 1.796875,-2.3125 c 0,-0.015625 0.046875,-0.109375 0.046875,-0.1875 0,-0.171875 -0.15625,-0.28125 -0.3125,-0.28125 -0.203125,0 -0.25,0.15625 -0.28125,0.21875 L 0.484375,-0.40625 C 0.46875,-0.34375 0.46875,-0.328125 0.46875,-0.3125 c 0,0.078125 0.203125,0.125 0.203125,0.125 0.046875,0 0.0625,-0.03125 0.09375,-0.09375 z m 0,0"
   id="id-f6a3cfc5-955b-454b-b023-1aa85edb70f1" />
      </g></g>
    <g
   style="fill:#000000;fill-opacity:1"
   id="id-18280d50-0fab-4799-9652-519df76ac228">
      <g
   transform="translate(236.967,130.663)"
   id="g1964"><path
   style="stroke:none"
   d="M 3.515625,-1.265625 H 3.28125 c -0.015625,0.15625 -0.09375,0.5625 -0.1875,0.625 C 3.046875,-0.59375 2.515625,-0.59375 2.40625,-0.59375 H 1.125 c 0.734375,-0.640625 0.984375,-0.84375 1.390625,-1.171875 0.515625,-0.40625 1,-0.84375 1,-1.5 0,-0.84375 -0.734375,-1.359375 -1.625,-1.359375 -0.859375,0 -1.453125,0.609375 -1.453125,1.25 0,0.34375 0.296875,0.390625 0.375,0.390625 0.15625,0 0.359375,-0.125 0.359375,-0.375 0,-0.125 -0.046875,-0.375 -0.40625,-0.375 C 0.984375,-4.21875 1.453125,-4.375 1.78125,-4.375 c 0.703125,0 1.0625,0.546875 1.0625,1.109375 0,0.609375 -0.4375,1.078125 -0.65625,1.328125 L 0.515625,-0.265625 C 0.4375,-0.203125 0.4375,-0.1875 0.4375,0 h 2.875 z m 0,0"
   id="id-07229abb-d671-4f35-adca-64638553d34e" />
      </g></g>
    <g
   style="fill:#000000;fill-opacity:1"
   id="id-9478712c-9e11-4340-b986-e5bff491ab5a">
      <g
   transform="translate(240.939,127.657)"
   id="g1968"><path
   style="stroke:none"
   d="m 1.796875,-2.3125 c 0,-0.015625 0.046875,-0.109375 0.046875,-0.1875 0,-0.171875 -0.15625,-0.28125 -0.3125,-0.28125 -0.203125,0 -0.25,0.15625 -0.28125,0.21875 L 0.484375,-0.40625 C 0.46875,-0.34375 0.46875,-0.328125 0.46875,-0.3125 c 0,0.078125 0.203125,0.125 0.203125,0.125 0.046875,0 0.0625,-0.03125 0.09375,-0.09375 z m 0,0"
   id="id-0f306c23-88ac-4bfe-a803-5728fd63baed" />
      </g></g>
    <g
   style="fill:#000000;fill-opacity:1"
   id="id-c393540a-e953-4736-bf7a-a40a6cbd4984">
      <g
   transform="translate(244.131,135.036)"
   id="g1972"><path
   style="stroke:none"
   d="M 7.34375,-6.734375 H 0.625 l -0.203125,2.40625 h 0.46875 c 0.09375,-1.125 0.1875,-1.9375 1.625,-1.9375 H 3.28125 V -0.46875 H 1.75 V 0 c 0.546875,-0.03125 1.65625,-0.03125 2.234375,-0.03125 0.59375,0 1.703125,0 2.234375,0.03125 V -0.46875 H 4.6875 v -5.796875 h 0.765625 c 1.421875,0 1.53125,0.796875 1.625,1.9375 h 0.46875 z m 0,0"
   id="id-1c39974d-f521-434a-a688-0239ab3e6baf" />
      </g></g>
    <g
   style="fill:#000000;fill-opacity:1"
   id="id-75cb763a-eb6f-467b-a7ba-7148c914ddce">
      <g
   transform="translate(252.101,136.53)"
   id="g1976"><path
   style="stroke:none"
   d="M 3.515625,-1.265625 H 3.28125 c -0.015625,0.15625 -0.09375,0.5625 -0.1875,0.625 C 3.046875,-0.59375 2.515625,-0.59375 2.40625,-0.59375 H 1.125 c 0.734375,-0.640625 0.984375,-0.84375 1.390625,-1.171875 0.515625,-0.40625 1,-0.84375 1,-1.5 0,-0.84375 -0.734375,-1.359375 -1.625,-1.359375 -0.859375,0 -1.453125,0.609375 -1.453125,1.25 0,0.34375 0.296875,0.390625 0.375,0.390625 0.15625,0 0.359375,-0.125 0.359375,-0.375 0,-0.125 -0.046875,-0.375 -0.40625,-0.375 C 0.984375,-4.21875 1.453125,-4.375 1.78125,-4.375 c 0.703125,0 1.0625,0.546875 1.0625,1.109375 0,0.609375 -0.4375,1.078125 -0.65625,1.328125 L 0.515625,-0.265625 C 0.4375,-0.203125 0.4375,-0.1875 0.4375,0 h 2.875 z m 0,0"
   id="id-1dfb5f27-1a52-4b7c-82ff-4d348d8503bd" />
      </g></g>
    <g
   style="fill:#000000;fill-opacity:1"
   id="id-765d837e-d94c-446e-9659-ddacfa9e9394">
      <g
   transform="translate(256.571,135.036)"
   id="g1980"><path
   style="stroke:none"
   d="m 3.296875,2.390625 c 0,-0.03125 0,-0.046875 -0.171875,-0.21875 C 1.890625,0.921875 1.5625,-0.96875 1.5625,-2.5 c 0,-1.734375 0.375,-3.46875 1.609375,-4.703125 0.125,-0.125 0.125,-0.140625 0.125,-0.171875 0,-0.078125 -0.03125,-0.109375 -0.09375,-0.109375 -0.109375,0 -1,0.6875 -1.59375,1.953125 -0.5,1.09375 -0.625,2.203125 -0.625,3.03125 0,0.78125 0.109375,1.984375 0.65625,3.125 C 2.25,1.84375 3.09375,2.5 3.203125,2.5 c 0.0625,0 0.09375,-0.03125 0.09375,-0.109375 z m 0,0"
   id="id-71a09555-1309-4eb2-94d4-56f57b3a0324" />
      </g></g>
    <g
   style="fill:#000000;fill-opacity:1"
   id="id-c31544a3-1cb4-45d1-b5ba-f0156c804c41">
      <g
   transform="translate(260.445,135.036)"
   id="g1984"><path
   style="stroke:none"
   d="m 4.5,-4.296875 c 0,-0.046875 -0.03125,-0.09375 -0.09375,-0.09375 -0.109375,0 -0.515625,0.390625 -0.671875,0.6875 C 3.515625,-4.25 3.125,-4.40625 2.796875,-4.40625 c -1.171875,0 -2.390625,1.46875 -2.390625,2.921875 0,0.96875 0.578125,1.59375 1.3125,1.59375 0.421875,0 0.8125,-0.234375 1.171875,-0.59375 -0.09375,0.34375 -0.421875,1.6875 -0.453125,1.78125 -0.078125,0.28125 -0.15625,0.3125 -0.71875,0.328125 -0.125,0 -0.21875,0 -0.21875,0.203125 0,0 0,0.109375 0.125,0.109375 0.3125,0 0.671875,-0.03125 1,-0.03125 0.328125,0 0.6875,0.03125 1.03125,0.03125 0.046875,0 0.171875,0 0.171875,-0.203125 C 3.828125,1.625 3.734375,1.625 3.5625,1.625 3.09375,1.625 3.09375,1.5625 3.09375,1.46875 3.09375,1.390625 3.109375,1.328125 3.125,1.25 Z m -2.75,4.1875 c -0.609375,0 -0.640625,-0.765625 -0.640625,-0.9375 0,-0.484375 0.28125,-1.5625 0.453125,-1.984375 0.3125,-0.734375 0.828125,-1.15625 1.234375,-1.15625 0.65625,0 0.796875,0.8125 0.796875,0.875 0,0.0625 -0.546875,2.25 -0.578125,2.28125 C 2.859375,-0.75 2.296875,-0.109375 1.75,-0.109375 Z m 0,0"
   id="id-a6fd21d0-0bc4-408a-81bb-9874c0614fde" />
      </g></g>
    <g
   style="fill:#000000;fill-opacity:1"
   id="id-cadd8aff-8792-48bf-bb5a-d147be9b0870">
      <g
   transform="translate(264.893,136.53)"
   id="g1988"><path
   style="stroke:none"
   d="M 3.515625,-1.265625 H 3.28125 c -0.015625,0.15625 -0.09375,0.5625 -0.1875,0.625 C 3.046875,-0.59375 2.515625,-0.59375 2.40625,-0.59375 H 1.125 c 0.734375,-0.640625 0.984375,-0.84375 1.390625,-1.171875 0.515625,-0.40625 1,-0.84375 1,-1.5 0,-0.84375 -0.734375,-1.359375 -1.625,-1.359375 -0.859375,0 -1.453125,0.609375 -1.453125,1.25 0,0.34375 0.296875,0.390625 0.375,0.390625 0.15625,0 0.359375,-0.125 0.359375,-0.375 0,-0.125 -0.046875,-0.375 -0.40625,-0.375 C 0.984375,-4.21875 1.453125,-4.375 1.78125,-4.375 c 0.703125,0 1.0625,0.546875 1.0625,1.109375 0,0.609375 -0.4375,1.078125 -0.65625,1.328125 L 0.515625,-0.265625 C 0.4375,-0.203125 0.4375,-0.1875 0.4375,0 h 2.875 z m 0,0"
   id="id-1ecf80f1-f24b-427e-9711-72e92d460713" />
      </g></g>
    <g
   style="fill:#000000;fill-opacity:1"
   id="id-77a953ef-9897-4c02-8df8-2ac41f760e0f">
      <g
   transform="translate(269.362,135.036)"
   id="g1992"><path
   style="stroke:none"
   d="m 2.875,-2.5 c 0,-0.765625 -0.109375,-1.96875 -0.65625,-3.109375 -0.59375,-1.21875 -1.453125,-1.875 -1.546875,-1.875 -0.0625,0 -0.109375,0.046875 -0.109375,0.109375 0,0.03125 0,0.046875 0.1875,0.234375 0.984375,0.984375 1.546875,2.5625 1.546875,4.640625 0,1.71875 -0.359375,3.46875 -1.59375,4.71875 C 0.5625,2.34375 0.5625,2.359375 0.5625,2.390625 0.5625,2.453125 0.609375,2.5 0.671875,2.5 0.765625,2.5 1.671875,1.8125 2.25,0.546875 2.765625,-0.546875 2.875,-1.65625 2.875,-2.5 Z m 0,0"
   id="id-33e367ad-e67d-4175-82d5-9662add0b453" />
      </g></g>
    <g
   style="fill:#000000;fill-opacity:1"
   id="id-d7771b44-a936-4bd0-b661-81641201c914">
      <g
   transform="translate(274.897,129.296)"
   id="g1996"><path
   style="stroke:none"
   d="M 3.515625,-1.265625 H 3.28125 c -0.015625,0.15625 -0.09375,0.5625 -0.1875,0.625 C 3.046875,-0.59375 2.515625,-0.59375 2.40625,-0.59375 H 1.125 c 0.734375,-0.640625 0.984375,-0.84375 1.390625,-1.171875 0.515625,-0.40625 1,-0.84375 1,-1.5 0,-0.84375 -0.734375,-1.359375 -1.625,-1.359375 -0.859375,0 -1.453125,0.609375 -1.453125,1.25 0,0.34375 0.296875,0.390625 0.375,0.390625 0.15625,0 0.359375,-0.125 0.359375,-0.375 0,-0.125 -0.046875,-0.375 -0.40625,-0.375 C 0.984375,-4.21875 1.453125,-4.375 1.78125,-4.375 c 0.703125,0 1.0625,0.546875 1.0625,1.109375 0,0.609375 -0.4375,1.078125 -0.65625,1.328125 L 0.515625,-0.265625 C 0.4375,-0.203125 0.4375,-0.1875 0.4375,0 h 2.875 z m 0,0"
   id="id-0aadff96-079e-4725-a1f3-91794d690b77" />
      </g></g>
    <g
   style="fill:#000000;fill-opacity:1"
   id="id-69e9bf93-2b7f-4e55-bd9c-e0c616ca6436">
      <g
   transform="translate(280.861,132.49)"
   id="g2000"><path
   style="stroke:none"
   d="M 4.28125,-5.578125 V -5.875 H 0.6875 v 0.296875 z m 0,0"
   id="id-728bb24c-a318-4be1-bb4a-c41b9072e6c6" />
      </g></g>
    <g
   style="fill:#000000;fill-opacity:1"
   id="id-108b1c92-489f-4d27-a54d-f42fa2e8f142">
      <g
   transform="translate(279.366,135.036)"
   id="g2004"><path
   style="stroke:none"
   d="M 7.34375,-6.734375 H 0.625 l -0.203125,2.40625 h 0.46875 c 0.09375,-1.125 0.1875,-1.9375 1.625,-1.9375 H 3.28125 V -0.46875 H 1.75 V 0 c 0.546875,-0.03125 1.65625,-0.03125 2.234375,-0.03125 0.59375,0 1.703125,0 2.234375,0.03125 V -0.46875 H 4.6875 v -5.796875 h 0.765625 c 1.421875,0 1.53125,0.796875 1.625,1.9375 h 0.46875 z m 0,0"
   id="id-06e97238-ac73-4902-ae4f-c13649356e44" />
      </g></g>
    <g
   style="fill:#000000;fill-opacity:1"
   id="id-df03661f-6261-4e9b-9394-9c57195f0e22">
      <g
   transform="translate(287.336,136.53)"
   id="g2008"><path
   style="stroke:none"
   d="m 1.90625,-2.328125 c 0.546875,0 0.9375,0.375 0.9375,1.125 0,0.859375 -0.515625,1.125 -0.90625,1.125 -0.28125,0 -0.90625,-0.078125 -1.1875,-0.5 0.328125,0 0.40625,-0.234375 0.40625,-0.390625 0,-0.21875 -0.171875,-0.375 -0.390625,-0.375 -0.1875,0 -0.390625,0.125 -0.390625,0.40625 0,0.65625 0.71875,1.078125 1.5625,1.078125 0.96875,0 1.640625,-0.65625 1.640625,-1.34375 0,-0.546875 -0.4375,-1.09375 -1.203125,-1.25 0.71875,-0.265625 0.984375,-0.78125 0.984375,-1.21875 0,-0.546875 -0.625,-0.953125 -1.40625,-0.953125 -0.765625,0 -1.359375,0.375 -1.359375,0.9375 0,0.234375 0.15625,0.359375 0.359375,0.359375 0.21875,0 0.359375,-0.15625 0.359375,-0.34375 0,-0.203125 -0.140625,-0.359375 -0.359375,-0.375 0.25,-0.296875 0.71875,-0.375 0.984375,-0.375 0.3125,0 0.75,0.15625 0.75,0.75 0,0.296875 -0.09375,0.625 -0.28125,0.828125 -0.21875,0.265625 -0.421875,0.28125 -0.765625,0.3125 -0.171875,0.015625 -0.1875,0.015625 -0.21875,0.015625 -0.015625,0 -0.078125,0.015625 -0.078125,0.09375 0,0.09375 0.0625,0.09375 0.1875,0.09375 z m 0,0"
   id="id-8c16bd2d-bb82-4910-8be2-67e900665e3a" />
      </g></g>
    <g
   style="fill:#000000;fill-opacity:1"
   id="id-04797b39-8a7a-4e91-ab34-13d443ec6348">
      <g
   transform="translate(291.307,134.538)"
   id="g2012"><path
   style="stroke:none"
   d="m 1.796875,-2.3125 c 0,-0.015625 0.046875,-0.109375 0.046875,-0.1875 0,-0.171875 -0.15625,-0.28125 -0.3125,-0.28125 -0.203125,0 -0.25,0.15625 -0.28125,0.21875 L 0.484375,-0.40625 C 0.46875,-0.34375 0.46875,-0.328125 0.46875,-0.3125 c 0,0.078125 0.203125,0.125 0.203125,0.125 0.046875,0 0.0625,-0.03125 0.09375,-0.09375 z m 0,0"
   id="id-49839f63-21e8-4f67-a6d4-fc46b65418f3" />
      </g></g>
    <g
   style="fill:#000000;fill-opacity:1"
   id="id-b224a841-7f85-4ffa-8344-2b3bd669fc20">
      <g
   transform="translate(296.161,130.663)"
   id="g2016"><path
   style="stroke:none"
   d="m 1.90625,-2.328125 c 0.546875,0 0.9375,0.375 0.9375,1.125 0,0.859375 -0.515625,1.125 -0.90625,1.125 -0.28125,0 -0.90625,-0.078125 -1.1875,-0.5 0.328125,0 0.40625,-0.234375 0.40625,-0.390625 0,-0.21875 -0.171875,-0.375 -0.390625,-0.375 -0.1875,0 -0.390625,0.125 -0.390625,0.40625 0,0.65625 0.71875,1.078125 1.5625,1.078125 0.96875,0 1.640625,-0.65625 1.640625,-1.34375 0,-0.546875 -0.4375,-1.09375 -1.203125,-1.25 0.71875,-0.265625 0.984375,-0.78125 0.984375,-1.21875 0,-0.546875 -0.625,-0.953125 -1.40625,-0.953125 -0.765625,0 -1.359375,0.375 -1.359375,0.9375 0,0.234375 0.15625,0.359375 0.359375,0.359375 0.21875,0 0.359375,-0.15625 0.359375,-0.34375 0,-0.203125 -0.140625,-0.359375 -0.359375,-0.375 0.25,-0.296875 0.71875,-0.375 0.984375,-0.375 0.3125,0 0.75,0.15625 0.75,0.75 0,0.296875 -0.09375,0.625 -0.28125,0.828125 -0.21875,0.265625 -0.421875,0.28125 -0.765625,0.3125 -0.171875,0.015625 -0.1875,0.015625 -0.21875,0.015625 -0.015625,0 -0.078125,0.015625 -0.078125,0.09375 0,0.09375 0.0625,0.09375 0.1875,0.09375 z m 0,0"
   id="id-86274aa6-fe4a-4253-9779-2481683e777c" />
      </g></g>
    <g
   style="fill:#000000;fill-opacity:1"
   id="id-eaae56cc-2300-4bf6-929c-76ed13f0d350">
      <g
   transform="translate(300.132,127.657)"
   id="g2020"><path
   style="stroke:none"
   d="m 1.796875,-2.3125 c 0,-0.015625 0.046875,-0.109375 0.046875,-0.1875 0,-0.171875 -0.15625,-0.28125 -0.3125,-0.28125 -0.203125,0 -0.25,0.15625 -0.28125,0.21875 L 0.484375,-0.40625 C 0.46875,-0.34375 0.46875,-0.328125 0.46875,-0.3125 c 0,0.078125 0.203125,0.125 0.203125,0.125 0.046875,0 0.0625,-0.03125 0.09375,-0.09375 z m 0,0"
   id="id-688ce00d-7852-48ed-a686-9dbc76f29bfe" />
      </g></g>
    <g
   style="fill:#000000;fill-opacity:1"
   id="id-6d7c44ba-cf75-4514-9a2f-c4e6b1102566">
      <g
   transform="translate(303.325,135.036)"
   id="g2024"><path
   style="stroke:none"
   d="M 7.34375,-6.734375 H 0.625 l -0.203125,2.40625 h 0.46875 c 0.09375,-1.125 0.1875,-1.9375 1.625,-1.9375 H 3.28125 V -0.46875 H 1.75 V 0 c 0.546875,-0.03125 1.65625,-0.03125 2.234375,-0.03125 0.59375,0 1.703125,0 2.234375,0.03125 V -0.46875 H 4.6875 v -5.796875 h 0.765625 c 1.421875,0 1.53125,0.796875 1.625,1.9375 h 0.46875 z m 0,0"
   id="id-d009778a-bf0f-4f23-aa27-cb615d6b14af" />
      </g></g>
    <g
   style="fill:#000000;fill-opacity:1"
   id="id-5c76c5b5-58f4-4894-84da-a272f72dc7f4">
      <g
   transform="translate(311.295,136.53)"
   id="g2028"><path
   style="stroke:none"
   d="m 1.90625,-2.328125 c 0.546875,0 0.9375,0.375 0.9375,1.125 0,0.859375 -0.515625,1.125 -0.90625,1.125 -0.28125,0 -0.90625,-0.078125 -1.1875,-0.5 0.328125,0 0.40625,-0.234375 0.40625,-0.390625 0,-0.21875 -0.171875,-0.375 -0.390625,-0.375 -0.1875,0 -0.390625,0.125 -0.390625,0.40625 0,0.65625 0.71875,1.078125 1.5625,1.078125 0.96875,0 1.640625,-0.65625 1.640625,-1.34375 0,-0.546875 -0.4375,-1.09375 -1.203125,-1.25 0.71875,-0.265625 0.984375,-0.78125 0.984375,-1.21875 0,-0.546875 -0.625,-0.953125 -1.40625,-0.953125 -0.765625,0 -1.359375,0.375 -1.359375,0.9375 0,0.234375 0.15625,0.359375 0.359375,0.359375 0.21875,0 0.359375,-0.15625 0.359375,-0.34375 0,-0.203125 -0.140625,-0.359375 -0.359375,-0.375 0.25,-0.296875 0.71875,-0.375 0.984375,-0.375 0.3125,0 0.75,0.15625 0.75,0.75 0,0.296875 -0.09375,0.625 -0.28125,0.828125 -0.21875,0.265625 -0.421875,0.28125 -0.765625,0.3125 -0.171875,0.015625 -0.1875,0.015625 -0.21875,0.015625 -0.015625,0 -0.078125,0.015625 -0.078125,0.09375 0,0.09375 0.0625,0.09375 0.1875,0.09375 z m 0,0"
   id="id-96588a25-6935-4579-941a-4f7035f7792c" />
      </g></g>
    <g
   style="fill:#000000;fill-opacity:1"
   id="id-927ae4c1-fab0-4c52-98cd-a1ecaaad0e2f">
      <g
   transform="translate(315.764,135.036)"
   id="g2032"><path
   style="stroke:none"
   d="m 3.296875,2.390625 c 0,-0.03125 0,-0.046875 -0.171875,-0.21875 C 1.890625,0.921875 1.5625,-0.96875 1.5625,-2.5 c 0,-1.734375 0.375,-3.46875 1.609375,-4.703125 0.125,-0.125 0.125,-0.140625 0.125,-0.171875 0,-0.078125 -0.03125,-0.109375 -0.09375,-0.109375 -0.109375,0 -1,0.6875 -1.59375,1.953125 -0.5,1.09375 -0.625,2.203125 -0.625,3.03125 0,0.78125 0.109375,1.984375 0.65625,3.125 C 2.25,1.84375 3.09375,2.5 3.203125,2.5 c 0.0625,0 0.09375,-0.03125 0.09375,-0.109375 z m 0,0"
   id="id-9c596844-aa7c-4579-b24a-db2b901bdd9b" />
      </g></g>
    <g
   style="fill:#000000;fill-opacity:1"
   id="id-4abf6902-7749-4076-acad-89530987185d">
      <g
   transform="translate(319.639,135.036)"
   id="g2036"><path
   style="stroke:none"
   d="m 4.5,-4.296875 c 0,-0.046875 -0.03125,-0.09375 -0.09375,-0.09375 -0.109375,0 -0.515625,0.390625 -0.671875,0.6875 C 3.515625,-4.25 3.125,-4.40625 2.796875,-4.40625 c -1.171875,0 -2.390625,1.46875 -2.390625,2.921875 0,0.96875 0.578125,1.59375 1.3125,1.59375 0.421875,0 0.8125,-0.234375 1.171875,-0.59375 -0.09375,0.34375 -0.421875,1.6875 -0.453125,1.78125 -0.078125,0.28125 -0.15625,0.3125 -0.71875,0.328125 -0.125,0 -0.21875,0 -0.21875,0.203125 0,0 0,0.109375 0.125,0.109375 0.3125,0 0.671875,-0.03125 1,-0.03125 0.328125,0 0.6875,0.03125 1.03125,0.03125 0.046875,0 0.171875,0 0.171875,-0.203125 C 3.828125,1.625 3.734375,1.625 3.5625,1.625 3.09375,1.625 3.09375,1.5625 3.09375,1.46875 3.09375,1.390625 3.109375,1.328125 3.125,1.25 Z m -2.75,4.1875 c -0.609375,0 -0.640625,-0.765625 -0.640625,-0.9375 0,-0.484375 0.28125,-1.5625 0.453125,-1.984375 0.3125,-0.734375 0.828125,-1.15625 1.234375,-1.15625 0.65625,0 0.796875,0.8125 0.796875,0.875 0,0.0625 -0.546875,2.25 -0.578125,2.28125 C 2.859375,-0.75 2.296875,-0.109375 1.75,-0.109375 Z m 0,0"
   id="id-b49eb025-bbb3-438e-8295-b7d7807c2f38" />
      </g></g>
    <g
   style="fill:#000000;fill-opacity:1"
   id="id-4c737d45-ad7f-4f64-80aa-958b4f8eae95">
      <g
   transform="translate(324.086,136.53)"
   id="g2040"><path
   style="stroke:none"
   d="m 1.90625,-2.328125 c 0.546875,0 0.9375,0.375 0.9375,1.125 0,0.859375 -0.515625,1.125 -0.90625,1.125 -0.28125,0 -0.90625,-0.078125 -1.1875,-0.5 0.328125,0 0.40625,-0.234375 0.40625,-0.390625 0,-0.21875 -0.171875,-0.375 -0.390625,-0.375 -0.1875,0 -0.390625,0.125 -0.390625,0.40625 0,0.65625 0.71875,1.078125 1.5625,1.078125 0.96875,0 1.640625,-0.65625 1.640625,-1.34375 0,-0.546875 -0.4375,-1.09375 -1.203125,-1.25 0.71875,-0.265625 0.984375,-0.78125 0.984375,-1.21875 0,-0.546875 -0.625,-0.953125 -1.40625,-0.953125 -0.765625,0 -1.359375,0.375 -1.359375,0.9375 0,0.234375 0.15625,0.359375 0.359375,0.359375 0.21875,0 0.359375,-0.15625 0.359375,-0.34375 0,-0.203125 -0.140625,-0.359375 -0.359375,-0.375 0.25,-0.296875 0.71875,-0.375 0.984375,-0.375 0.3125,0 0.75,0.15625 0.75,0.75 0,0.296875 -0.09375,0.625 -0.28125,0.828125 -0.21875,0.265625 -0.421875,0.28125 -0.765625,0.3125 -0.171875,0.015625 -0.1875,0.015625 -0.21875,0.015625 -0.015625,0 -0.078125,0.015625 -0.078125,0.09375 0,0.09375 0.0625,0.09375 0.1875,0.09375 z m 0,0"
   id="id-70bac234-580b-4ce2-b73e-2f6bf325485d" />
      </g></g>
    <g
   style="fill:#000000;fill-opacity:1"
   id="id-83ad9be3-2c60-424e-8562-6e0d34033dd1">
      <g
   transform="translate(328.556,135.036)"
   id="g2044"><path
   style="stroke:none"
   d="m 2.875,-2.5 c 0,-0.765625 -0.109375,-1.96875 -0.65625,-3.109375 -0.59375,-1.21875 -1.453125,-1.875 -1.546875,-1.875 -0.0625,0 -0.109375,0.046875 -0.109375,0.109375 0,0.03125 0,0.046875 0.1875,0.234375 0.984375,0.984375 1.546875,2.5625 1.546875,4.640625 0,1.71875 -0.359375,3.46875 -1.59375,4.71875 C 0.5625,2.34375 0.5625,2.359375 0.5625,2.390625 0.5625,2.453125 0.609375,2.5 0.671875,2.5 0.765625,2.5 1.671875,1.8125 2.25,0.546875 2.765625,-0.546875 2.875,-1.65625 2.875,-2.5 Z m 0,0"
   id="id-b5e04774-1ab0-4f4f-bc52-9fc8b97edb01" />
      </g></g>
    <g
   style="fill:#000000;fill-opacity:1"
   id="id-83caa531-2b81-4f0f-b895-e9196bb741a6">
      <g
   transform="translate(334.09,129.296)"
   id="g2048"><path
   style="stroke:none"
   d="m 1.90625,-2.328125 c 0.546875,0 0.9375,0.375 0.9375,1.125 0,0.859375 -0.515625,1.125 -0.90625,1.125 -0.28125,0 -0.90625,-0.078125 -1.1875,-0.5 0.328125,0 0.40625,-0.234375 0.40625,-0.390625 0,-0.21875 -0.171875,-0.375 -0.390625,-0.375 -0.1875,0 -0.390625,0.125 -0.390625,0.40625 0,0.65625 0.71875,1.078125 1.5625,1.078125 0.96875,0 1.640625,-0.65625 1.640625,-1.34375 0,-0.546875 -0.4375,-1.09375 -1.203125,-1.25 0.71875,-0.265625 0.984375,-0.78125 0.984375,-1.21875 0,-0.546875 -0.625,-0.953125 -1.40625,-0.953125 -0.765625,0 -1.359375,0.375 -1.359375,0.9375 0,0.234375 0.15625,0.359375 0.359375,0.359375 0.21875,0 0.359375,-0.15625 0.359375,-0.34375 0,-0.203125 -0.140625,-0.359375 -0.359375,-0.375 0.25,-0.296875 0.71875,-0.375 0.984375,-0.375 0.3125,0 0.75,0.15625 0.75,0.75 0,0.296875 -0.09375,0.625 -0.28125,0.828125 -0.21875,0.265625 -0.421875,0.28125 -0.765625,0.3125 -0.171875,0.015625 -0.1875,0.015625 -0.21875,0.015625 -0.015625,0 -0.078125,0.015625 -0.078125,0.09375 0,0.09375 0.0625,0.09375 0.1875,0.09375 z m 0,0"
   id="id-653bdb8b-d036-4879-a313-f9723ce408a1" />
      </g></g>
    <g
   style="fill:#000000;fill-opacity:1"
   id="id-438e334f-cae8-45cd-8109-0b3ea6d694ae">
      <g
   transform="translate(340.054,132.49)"
   id="g2052"><path
   style="stroke:none"
   d="M 4.28125,-5.578125 V -5.875 H 0.6875 v 0.296875 z m 0,0"
   id="id-ae248386-2387-45ff-bd7e-729001325c9e" />
      </g></g>
    <g
   style="fill:#000000;fill-opacity:1"
   id="id-b56e2904-ce23-4af3-81ec-c91b67a68c65">
      <g
   transform="translate(338.56,135.036)"
   id="g2056"><path
   style="stroke:none"
   d="M 7.34375,-6.734375 H 0.625 l -0.203125,2.40625 h 0.46875 c 0.09375,-1.125 0.1875,-1.9375 1.625,-1.9375 H 3.28125 V -0.46875 H 1.75 V 0 c 0.546875,-0.03125 1.65625,-0.03125 2.234375,-0.03125 0.59375,0 1.703125,0 2.234375,0.03125 V -0.46875 H 4.6875 v -5.796875 h 0.765625 c 1.421875,0 1.53125,0.796875 1.625,1.9375 h 0.46875 z m 0,0"
   id="id-4056da9a-70cd-4823-acd6-94cb1b38cfef" />
      </g></g>
    <g
   style="fill:#000000;fill-opacity:1"
   id="id-6b722432-ff5c-46e7-90c6-bfe4ccd583b8">
      <g
   transform="translate(346.53,136.53)"
   id="g2060"><path
   style="stroke:none"
   d="m 3.6875,-1.140625 v -0.25 H 2.90625 V -4.5 c 0,-0.140625 0,-0.203125 -0.140625,-0.203125 -0.09375,0 -0.125,0 -0.1875,0.109375 l -2.3125,3.203125 v 0.25 h 2.0625 v 0.5625 c 0,0.25 0,0.328125 -0.578125,0.328125 H 1.5625 V 0 C 1.921875,-0.015625 2.359375,-0.03125 2.609375,-0.03125 2.875,-0.03125 3.3125,-0.015625 3.671875,0 v -0.25 h -0.1875 C 2.90625,-0.25 2.90625,-0.328125 2.90625,-0.578125 v -0.5625 z M 2.375,-3.9375 v 2.546875 H 0.53125 Z m 0,0"
   id="id-7ee0ebfd-e16e-4848-89a3-5d696e0bd44e" />
      </g></g>
  </g>
</g></svg>
